<?xml version="1.0" encoding="UTF-8"?>
<svg id="coralBanner1" xmlns="http://www.w3.org/2000/svg" viewBox="0 0 1080.73 770.22">
  <defs>
    <style>
      .cls-1 {
        fill: #ffebde;
        stroke: #570060;
        stroke-miterlimit: 10;
        stroke-width: 2.84px;
      }

      .cls-2 {
        fill: #efd5d3;
        stroke-width: 0px;
      }
    </style>
  </defs>
  <path class="cls-1" d="M1068.66,560.21c-41.88-6.12-82.55-15.26-121.66-27.27,3.25-2.06,6.31-4.28,9.15-6.65,11.67,3.16,23.76,5.52,36.04,7.03,12.5,1.54,25.19,2.2,37.83,1.95,6.65-.13,11.89-4.2,11.7-9.1-.18-4.89-5.72-8.75-12.37-8.62-20.01.4-40.19-1.82-59.24-6.45,4.17-6.08,7.18-12.59,8.78-19.29,1.15-4.82-3.23-9.41-9.77-10.26-.04,0-.07,0-.11-.01-6.51-.8-12.69,2.41-13.83,7.2-1.42,5.96-4.34,11.73-8.45,16.99-3.87.46-7.35,2.29-9.07,5.12-.96,1.57-1.23,3.23-.93,4.82-2.42,1.89-5.01,3.65-7.79,5.25-2.19,1.26-3.61,2.97-4.24,4.81-15.69-5.34-31.09-11.18-46.2-17.47,2.64-1.33,5.15-2.78,7.53-4.37.05,0,.09,0,.14-.02,21.69-3.45,40.08-14.62,49.85-29.01.81,0,1.63-.05,2.46-.18l72.65-11.05c6.51-.99,10.69-5.68,9.34-10.47-1.35-4.79-7.73-7.87-14.23-6.88l-62.93,9.58c.47-4.83-4.42-9.06-11.01-9.47-6.63-.41-12.44,3.22-12.99,8.09-1.38,12.27-12.51,23.67-27.42,29.23-5.31-2.47-12.38-1.53-16.14,2.25-13.06,13.17-39.67,17.89-59.65,11.02,1.04-8.43,3.4-16.72,7.01-24.7,32.28-5.77,62.63-17.04,88.08-32.76,5.09-3.15,5.75-8.73,1.47-12.48-4.28-3.75-11.87-4.24-16.96-1.09,0,0,0,0,0,0,3.2-20.49-8.4-42.39-30.99-54.8-5.33-2.93-12.87-2.12-16.85,1.8-3.98,3.92-2.88,9.47,2.45,12.4,20.09,11.03,27.72,32.83,17.38,49.63-1.14,1.84-1.33,3.82-.75,5.66-9.74,4.06-19.97,7.49-30.53,10.25,1.97-2.44,4.05-4.83,6.28-7.15,3.83-4,2.54-9.52-2.9-12.35-5.43-2.82-12.94-1.87-16.78,2.13-1.13,1.18-2.23,2.37-3.3,3.57-1.88-7.13-4.64-14.26-9.05-21.06-2.87-4.42-6.36-8.46-10.33-12.04.03-.25.06-.5.07-.76.48-24.34-6.94-48.77-21.45-70.64-2.92-4.4-10.12-6.23-16.1-4.08-5.97,2.14-8.45,7.45-5.54,11.85,10.25,15.45,16.49,32.33,18.39,49.46-6.04-1.99-12.39-3.2-18.87-3.5-6.64-.31-12.35,3.4-12.77,8.28-.42,4.88,4.62,9.09,11.26,9.4,13.06.61,26.26,8.33,33.61,19.66,7.48,11.52,9.18,25.17,10.83,38.36.14,1.12.57,2.17,1.21,3.13-4.74,10.04-7.79,20.52-8.99,31.19-2.49,22.11,2.88,43.65,8.07,64.48.36,1.45,1.19,2.75,2.34,3.84-11.61,1.53-23.08,3.6-34.31,6.18,1.85-7.99,2.57-16.11,2.08-24.19-.3-4.89-5.92-8.68-12.56-8.46-6.64.21-11.79,4.35-11.49,9.24,1.41,23.4-9.16,47.18-28.7,65.69-1.67-.96-3.7-1.6-5.95-1.76-6.33-.46-11.96,2.94-12.58,7.6-.33,2.52-.8,5.02-1.38,7.51-4.81-8-10.57-15.69-17.31-22.97-3.58-3.86-10.74-4.86-15.99-2.23-5.25,2.63-6.6,7.9-3.02,11.77,10.67,11.51,18.66,24.15,23.73,37.57.33.87.84,1.66,1.47,2.37-15.69,25.6-44.25,47.06-79.31,58.13-7.55-5.53-14.93-11.35-22.14-17.49.67-.75,1.2-1.58,1.53-2.49,4.29-11.94,7.71-24.04,10.24-36.24.12,0,.24.01.36.01l55.87-.02c6.32,0,11.43-3.77,11.42-8.42s-5.13-8.41-11.45-8.41h-5.73c-1.12-5.48-2.75-10.89-4.88-16.19,1.92-1.88,2.78-4.32,2.08-6.8-2.9-10.28-.75-21.51,5.89-30.8,2.96-4.14.79-9.26-4.84-11.44-.46-.18-.93-.32-1.41-.45,1.98-.41,3.96-.83,5.91-1.24,20.2-4.29,39.28-8.34,56.35-4.18,6.04,1.47,12.55-.94,14.54-5.38,2-4.44-1.28-9.23-7.32-10.7-23.84-5.81-48.35-.61-69.97,3.99-.97.21-1.93.41-2.88.61,6.15-7.44,10.91-15.51,14.14-23.91,32.95.67,66.13-.77,98.72-4.28,6.29-.68,10.64-4.98,9.71-9.61-.92-4.63-6.77-7.83-13.06-7.15-10.61,1.14-21.28,2.03-31.98,2.72,5.43-7.43,5.34-15.87,3.62-23.96,9.25.8,19.55,1.1,29.63-.92,17.3-3.47,30.02-13.91,30.94-25.37.39-4.88-4.67-9.07-11.31-9.37-6.64-.29-12.34,3.43-12.73,8.32-.35,4.41-7.09,8.1-13.25,9.34-8.61,1.73-18.69.69-28.5-.39-1.02-6.09.61-12.72,4.12-15.94,1.44-1.32,2.68-1.59,4.09-1.58,6.65.01,12.05-3.95,12.06-8.84,0-2.62-1.54-4.97-4-6.6,6.48.76,12.61-2.43,13.75-7.2,1.16-4.82-3.21-9.41-9.76-10.27-20.99-2.74-42.31-4.95-63.6-6.61,3.67-7.38,6.35-15.06,7.86-22.86.24-1.23.12-2.43-.3-3.56,17.73-3.47,34.9-8.47,50.99-14.97,5.83-2.35,7.96-7.74,4.75-12.03-3.2-4.29-10.52-5.86-16.35-3.51-2.8,1.13-5.63,2.21-8.5,3.24,9.81-15.5,13.22-33.24,9.33-50.09-1.11-4.82-7.33-8.07-13.89-7.26-6.55.82-10.97,5.39-9.85,10.21.13.55.22,1.1.33,1.65-3.89-5.79-8.18-11.45-12.85-16.93l28.18-17.7c5.06-3.18,5.65-8.77,1.34-12.49-4.32-3.72-11.92-4.17-16.97-.99l-26.35,16.55c-4.48-4.31-9.19-8.48-14.14-12.47-4.48-3.61-12.1-3.87-17.01-.57-4.91,3.3-5.25,8.9-.77,12.52,21.69,17.48,38.58,38.57,48.84,60.99.87,1.9,2.54,3.43,4.64,4.48-2.14,4.15-4.81,8.15-8.03,11.9-2.25,2.62-2.4,5.78-.78,8.4-33.67,7.83-70.09,9.34-104.68,4.09,14.13-8.38,30.55-14.82,47.86-18.75,6.07-1.38,9.48-6.12,7.6-10.59-1.88-4.47-8.32-6.98-14.39-5.6-3.47.79-6.9,1.67-10.3,2.63,1.12-24.87,3.72-49.97,7.77-74.66.8-4.86-3.92-9.26-10.51-9.86-6.6-.59-12.6,2.87-13.39,7.73-4.24,25.9-6.95,52.27-8.03,78.35-.09,2.2.92,4.23,2.65,5.82-4.44,1.81-8.76,3.78-12.95,5.88-.13-2.18-.37-4.35-.75-6.52-.81-4.64-6.58-7.92-12.88-7.33-6.3.59-10.76,4.84-9.95,9.48,2.57,14.69-2.27,30.02-12.89,42.63-5.31-9.25-11.5-18.21-18.56-26.74-3.31-4-10.39-5.26-15.82-2.83-5.43,2.43-7.15,7.64-3.84,11.64,8.89,10.75,16.32,22.24,22.14,34.16-.72,2.65.29,5.5,3.05,7.58.17.13.37.23.55.35,3.93,9.31,6.88,18.83,8.79,28.42-4.71,1.14-9.47,2.13-14.28,2.97-1.51-4.81-3.22-10.26-8.22-15.09-3.78-3.65-8.45-5.98-12.58-8.04-.81-.41-1.62-.81-2.42-1.22-14.08-7.3-24.37-18.64-28.24-31.12-1.41-4.53-7.54-7.37-13.69-6.34-6.16,1.03-10.01,5.54-8.6,10.07,5.11,16.48,18.74,31.47,37.37,41.14.91.47,1.84.94,2.77,1.4,2.93,1.46,5.7,2.84,7.21,4.3,2.02,1.95,3.04,5.22,4.13,8.68l.36,1.15c6.95,21.83,20.56,42.63,39.36,60.14.2.19.42.37.64.54-3.33,4.75-6.48,9.56-9.45,14.45-10.56-4.92-24.43-13.14-21.49-21.34,1.62-4.52-2.05-9.16-8.19-10.35-6.15-1.19-12.44,1.5-14.07,6.02-1.84,5.14-2.02,11.48,2.38,18.42-1.02,1.01-1.76,2.19-2.1,3.52-.81,3.23-4.15,6.27-8.93,8.13-4.78,1.86-10.07,2.19-14.16.88-.78-.25-1.58-.43-2.38-.55-6.4-11.37-12.57-22.69-18.6-33.84-.23-.43-.46-.86-.69-1.29,27.11-9.79,44.02-32.77,39.75-54.89-.9-4.63-6.72-7.85-13.02-7.2-6.29.66-10.67,4.94-9.77,9.57,2.76,14.27-8.09,29.59-25.18,36.57-5.01-10.54-9.08-21.59-9.7-32.56-.63-11.02,2.05-22.04,4.89-33.71,2.06-8.45,4.18-17.19,5.01-26.1,1.17-12.63-.29-25.03-3.26-37.23.12,0,.23,0,.35-.02,14.92-1.55,30.22-.23,44.25,3.81,5.92,1.71,12.6-.44,14.91-4.8.93-1.76,1-3.6.38-5.29,27.74-6.11,54.13-14.98,78.69-26.47,5.36-2.51,6.95-7.74,3.53-11.69-3.41-3.95-10.53-5.12-15.89-2.61-4.9,2.29-9.89,4.46-14.94,6.53l-1.68-40.42c-.41-9.79,2.19-11.9,3.32-12.36,5.84-2.34,7.99-7.72,4.81-12.02-3.18-4.3-10.49-5.89-16.33-3.55-16.77,6.72-16.11,22.51-15.86,28.45l2.02,48.59c-17.67,5.75-36.09,10.21-55.11,13.31-1.81.3-3.42.9-4.77,1.71-10.11-1.02-20.41-1.03-30.56.03-.69.07-1.35.19-1.98.35-.89-2.59-1.82-5.16-2.79-7.73,10.69-2.17,19.98-7.96,23.98-15.72,2.25-4.37-.74-9.26-6.68-10.93-5.94-1.66-12.59.54-14.84,4.91-1.39,2.69-5.07,4.83-9.01,5.51-1.56-3.68-3.14-7.34-4.72-10.99-2.28-5.27-4.53-10.47-6.67-15.64,11.67-.36,23.28-2.25,34.15-5.49l43.44,33.89c1.79,1.4,4.08,2.25,6.47,2.54,3.43.42,7.07-.3,9.8-2.19,4.62-3.21,4.83-8.57.47-11.97l-39.31-30.67c5.93-3.11,11.39-6.69,16.2-10.7,4.2-3.51,3.75-8.86-1.02-11.95-4.2-2.73-10.35-2.79-14.63-.36-1.14-4.35-3.16-8.59-5.62-12.73,29.61-2.68,21.91-20.16-11.74-16.75-4.13-5.57-8.16-11.24-10.63-16.76,2.66-.73,5.3-1.4,7.88-2.06,18.23-4.67,37.08-9.5,43.13-28.08,1.48-4.55-2.33-9.12-8.51-10.21-6.19-1.1-12.39,1.71-13.88,6.26-1.11,3.41-2.89,5.88-5.58,7.86,3.37-8.32,5.24-17,5.5-25.61.15-4.89-5.12-8.95-11.77-9.06-6.65-.11-12.16,3.76-12.3,8.66-.31,10.23-3.42,20.6-8.99,29.98-1.1,1.84-1.26,3.81-.66,5.63-.59.15-1.17.3-1.76.46-.03,0-.05,0-.08-.01-3.57-.44-7.34.29-10.57,2.11-4.34,2.45-8.12,7.19-6.8,12.28,2.21,8.55,7.34,16.44,12.87,24.03-1.56,1.78-2.28,3.96-1.78,6.21.85,3.85,4.95,6.72,9.91,7.33.6.07,1.2.11,1.82.12,6.58,9.67,9.59,16.98,5.95,23.92-11.84,4.48-25.25,6.77-38.5,6.41-1.92-5.46-3.61-10.91-4.96-16.35,1.25-.34,2.45-.84,3.52-1.52,4.81-3.05,5.35-8.4,1.2-11.94-2.56-2.19-5.22-4.3-7.94-6.36-.18-2.65-.28-5.31-.24-7.97.03-1.99.16-3.97.33-5.94.81-1.12,1.3-2.4,1.34-3.76.05-1.64-.02-3.25-.2-4.83,7.7-42.58,44.16-81.83,74.07-114.01,3.59-3.86,2.24-9.13-3.01-11.77-5.25-2.64-12.41-1.66-16,2.21-9.37,10.08-19.35,20.83-28.97,32.18-4.72-8.39-11.45-16.15-19.75-22.86.54-.69.96-1.45,1.24-2.26,3.06-8.98,12.15-16.83,23.72-20.49,6.11-1.93,8.93-7.14,6.31-11.63-2.63-4.5-9.71-6.58-15.81-4.65-15.79,4.99-28.64,14.92-35,26.67-5.27-2.57-10.86-4.8-16.73-6.61-5.87-1.81-12.61.22-15.06,4.54s.31,9.28,6.17,11.09c25.42,7.84,44.82,26.37,48.85,46.43-10.09,13.7-18.97,28.13-25.2,43.24-8.2-8.41-18.59-15.92-28.37-22.99-3.45-2.49-6.7-4.85-9.85-7.22-10.14-7.65-19.2-16.1-27.08-25.21,7.31-.62,14.78-.36,21.89.82,6.2,1.04,12.36-1.84,13.75-6.4,1.39-4.56-2.51-9.1-8.71-10.12-12.85-2.13-26.11-2.1-38.87.02-3.14-4.7-6-9.54-8.55-14.49,13.13-6,22.84-14.55,30.16-24.57,1.33.22,2.67.42,4.01.59,33.08,4.06,69.25-8.94,83.66-31.56,2.7-4.23.22-9.28-5.54-11.27-5.76-1.99-12.61-.17-15.31,4.07-9.75,15.3-34.83,24.48-57.52,22.22,4.77-10.28,7.98-21.31,10.42-32.23l25.23-2.8c6.28-.7,10.61-5.01,9.66-9.64-.95-4.63-6.82-7.81-13.1-7.11l-33.58,3.73c-5,.56-8.92,3.45-9.66,7.13-5,24.92-13.28,51.36-35.8,64.55-.35-.98-.72-1.95-1.05-2.93-5.41-16.15,3.5-75.02-.83-71.31-.72.61-1.51,1.19-2.35,1.72,1.36-5.45-22.55-4.49-24.18,3.96-.08-.02-.15-.03-.23-.04-6.35-1.46-13.5,15.46-7.15,16.92,1.71.39,3.45.69,5.19.94-.36,6.61-.23,13.26.4,19.92l-26.6-3.27c-6.56-.81-12.76,2.45-13.85,7.28s3.34,9.39,9.9,10.2l31.71,3.9c.6.07,1.2.1,1.79.11,1.06,4.59,2.32,9.17,3.85,13.73,10.65,31.8,32.04,60.5,61.84,82.99,3.32,2.5,6.82,5.03,10.2,7.48,16.61,12.01,33.73,24.39,36.49,38.64-.41,2.54-.7,5.09-.92,7.66-20.15-11.61-42.51-20.92-64.61-29.17l-19.47-44.68c-2.03-4.66-8.81-7.23-15.14-5.74-6.33,1.49-9.82,6.48-7.79,11.14l12.41,28.49c-.12-.04-.25-.09-.37-.13-5.73-2.02-12.61-.24-15.35,3.98-2.74,4.22-.32,9.28,5.41,11.3,6.56,2.31,13.26,4.68,20.01,7.12l1.08,2.48c1.43,3.27,5.19,5.51,9.5,6.04,1.83.22,3.76.14,5.64-.3,1.07-.25,2.06-.61,2.96-1.05,23.61,9.17,46.9,19.74,66.25,33.15,1.54,11.88,4.88,23.56,9.03,35.05,0,.01,0,.03-.01.04-.52,2.5.5,4.91,2.54,6.71.99,2.54,2.01,5.08,3.05,7.6-12.73-5.7-26.02-10.67-39.76-14.9-.21-.56-.49-1.12-.87-1.66l-23.91-34.28c-2.9-4.16-9.84-5.81-15.5-3.67-5.66,2.13-7.89,7.24-4.98,11.4l14.65,21.01c-4.29.42-8.08,2.61-9.46,5.85-1.9,4.46,1.48,9.22,7.54,10.62,28.63,6.61,55.43,16.57,79.67,29.59,1.06.57,2.21.98,3.39,1.25,8.22,19.22,15.48,37.81,17.42,56.59-14.54-9.28-33.43-14.1-52.23-17.66l-7.52-29.72c-1.16-4.6-7.17-7.64-13.42-6.78-6.25.85-10.37,5.27-9.21,9.87l5.65,22.34c-33.63-6.17-52.71-15.59-58.27-28.76-1.89-4.47-8.33-6.97-14.41-5.58-.19.04-.36.1-.54.15,1.94-34.27.51-68.63-4.31-102.78,3.3-3.01,3.65-7.37.46-10.68-.92-.96-1.83-1.92-2.73-2.89-.68-1.65-2.01-3.06-3.76-4.1-10.88-12.14-20.32-24.94-28.24-38.26,5.38-17.6-19.28-30.52-20.18-20.69-1.13.05-2.26.22-3.37.51-6.25,1.68-9.46,6.76-7.18,11.36,1.71,3.45,3.52,6.86,5.42,10.25-.6,1.59-1.23,3.17-1.93,4.74-2.07,4.65,1.38,9.65,7.69,11.18.59.14,1.19.25,1.79.32.82.1,1.64.13,2.45.11,7.5,11.27,16.05,22.15,25.59,32.56,8.45,54.36,8.15,109.31-.95,163.59-14.9-4.36-29.77-8.86-44.58-13.5,3.58-13.03,4.55-26.33,2.98-39.44,1.5-.77,2.79-1.81,3.72-3.09,19.9-27.49,23.15-61.39,8.7-90.68-2.69-5.45-5.92-10.69-9.05-15.75-5.79-9.38-11.26-18.23-12.82-27.44-.82-4.86-6.84-8.3-13.44-7.7-6.6.6-11.28,5.03-10.45,9.88,2.02,11.88,8.51,22.4,14.79,32.57,3.07,4.98,5.98,9.68,8.34,14.47.87,1.77,1.66,3.55,2.38,5.36l-57.27-28.98c-5.48-2.77-12.97-1.75-16.74,2.28-3.77,4.03-2.38,9.55,3.1,12.32l64.26,32.52c1.5.76,3.15,1.23,4.83,1.44,2.21.27,4.48.08,6.54-.54,1.22,11.48-.38,23.14-4.71,34.19-3.21-7.57-7.31-14.96-12.29-22.07-2.91-4.16-9.85-5.79-15.5-3.65-5.65,2.14-7.87,7.25-4.96,11.41,16.12,23.01,21.8,50.44,15.92,76.01-15.31-4.95-30.55-10.04-45.68-15.26-1.23-2.27-3.71-4.16-7.08-5.06-2.6-.69-5.3-.68-7.74-.11-4.19-1.48-8.38-2.94-12.55-4.44,8.66-19.04,11.09-39.51,6.99-59.37-1-4.84-7.14-8.17-13.71-7.43-6.57.73-11.09,5.25-10.09,10.08,3.36,16.29,1.62,33.06-5,48.78-.16-.06-.32-.11-.47-.17-5.68-2.1-12.6-.42-15.45,3.76-2.85,4.18-.56,9.27,5.12,11.37,10.24,3.79,20.56,7.5,30.91,11.17-7.29,6.48-18.34,10.87-29.62,11.23-6.64.21-11.79,4.34-11.5,9.23.25,4.26,4.55,7.68,10.04,8.36.81.1,1.66.14,2.51.11,20.24-.64,39.44-8.94,50.77-21.18,38.8,13.34,78.28,25.83,117.97,37.3-1.61,2.48-1.56,5.48.5,8.01,13.83,17,28.75,34.03,47.6,46.92.01.31.04.62.1.94.7,3.77,4.67,6.61,9.51,7.21,1.12.14,2.28.15,3.46.04.16-.02.31-.04.47-.06.93.48,1.86.94,2.81,1.4-14.94,4.01-31.15,5.11-48.01,4.36,1.31-13.88-2.74-27.92-11.77-40.22-3.02-4.12-10-5.65-15.6-3.43-5.59,2.22-7.68,7.36-4.66,11.48,6.78,9.24,9.92,19.75,9.14,30.18-18.09-2.26-36.58-5.99-54.79-9.95-6.09-1.33-12.5,1.23-14.3,5.72-1.8,4.48,1.68,9.2,7.78,10.52,19.37,4.22,39.09,8.18,58.61,10.58,34.91,4.29,69.17,3.58,99.65-9.59.24-.1.47-.22.69-.34,10.43,2.31,20.95,3.24,31.13,4.13,6.63.58,12.89,1.13,19.01,2.03,9.61,1.42,26.7,5.21,33.25,14.77,1.37,1.99,3.66,3.4,6.3,4.12,3.04,6.44,6.38,12.64,9.58,18.56,2.04,3.78,4.11,7.59,6.19,11.41-17.17-5.35-34.76-9.88-52.68-13.56-2.2-1.16-4.94-1.74-7.77-1.54-16.92-3.22-34.11-5.7-51.47-7.4-6.3-.62-12.09,2.64-12.92,7.28-.83,4.64,3.61,8.88,9.9,9.51.27.03.55.06.82.09-17.45,3.37-34.81,6.99-51.95,10.84-2.82.63-5.06,2-6.47,3.72-.49-.01-.99,0-1.48.04-3.41-6.32-4.64-13.28-3.27-20.01.94-4.63-3.37-8.95-9.68-9.63-6.29-.69-12.14,2.49-13.08,7.12-3.43,16.89,4.49,34.78,20.68,47,.84,2.62,1.65,5.25,2.44,7.89-11.97,1-24.79-2.23-33.14-8.59-4.42-3.37-11.7-3.46-16.27-.21-4.57,3.25-4.7,8.61-.28,11.98,9.31,7.1,21.74,11.71,34.86,13.32,6.41.79,12.98.85,19.43.15,1.66,6.54,3.15,13.1,4.48,19.66-5.9-.36-11.29,2.66-12.28,7.04-1.04,4.61,3.19,8.98,9.46,9.75l7.1.87c1.73,2.07,4.59,3.54,7.89,3.94,1.06.13,2.16.15,3.28.05,2.28-.2,4.31-.89,5.96-1.89l1.62.2c-.4,4.62-.71,9.3-.71,13.99-.01,22.52,8.86,41.2,24.74,52.95-2.08,2.12-4.33,4.13-6.76,6.04-3.36-2.02-6.69-4.06-10-6.1-7.2-4.44-14.48-8.98-21.76-13.61,1.46-1.63,2.18-3.63,1.82-5.72-.79-4.64-6.55-7.93-12.86-7.35-2.67.25-5.34.46-8.01.67-1.45-.97-2.9-1.93-4.34-2.91.27-1.75-.17-3.57-1.46-5.21l-17.97-22.85c-3.18-4.05-10.23-5.43-15.73-3.09-1.63.7-2.94,1.64-3.9,2.74-24.79-19.66-46.88-41.12-62.81-64.84,17.6-12.58,26.15-31.42,22.31-49.27-.99-4.62-6.89-7.78-13.17-7.05-6.28.73-10.56,5.06-9.57,9.68,2.18,10.13-1.6,21.07-9.77,29.46-2.74-5.31-5.2-10.73-7.26-16.26-1.68-4.48-7.97-7.12-14.06-5.89-6.09,1.23-9.67,5.86-7.99,10.34,5.2,13.9,12.42,27.07,21.16,39.6-16.49-2.57-33.31-4.18-50.18-4.81.1-2.29-1.05-4.6-3.46-6.33-15.97-11.46-27.93-25.8-34.6-41.47-1.9-4.46-8.36-6.95-14.42-5.56-6.07,1.4-9.44,6.15-7.54,10.61,6.69,15.72,17.94,30.28,32.79,42.58-11.48.29-22.93,1.04-34.25,2.25-6.29.67-10.64,4.97-9.72,9.6.74,3.74,4.69,6.54,9.5,7.13,1.15.14,2.34.16,3.56.03,40.82-4.38,83.37-2.27,123.04,6.07.4.08.8.15,1.21.2,9.36,10.73,19.78,20.96,30.93,30.75-18.59,1.08-37.52.48-56.05-1.74-1.48-.91-3.28-1.56-5.31-1.83-.06,0-.12-.02-.18-.02-1.93-.24-3.84-.1-5.58.33-7.78-1.22-15.47-2.72-22.99-4.5-6.05-1.44-12.54,1-14.49,5.46-1.95,4.45,1.37,9.22,7.42,10.66,7.25,1.72,14.63,3.2,22.11,4.44,2,11.81,12.52,23.42,28.39,30.32,9.94,4.32,20.71,6.67,31.63,8.01,7.59.93,15.26,1.38,22.76,1.67,20.72.79,41.62.53,62.34-.75,11.28,7.37,22.62,14.48,33.79,21.36,7.28,4.49,14.68,8.97,22.21,13.33-17.51,2.98-35.29,4.82-53.13,5.53-4.32-2.45-10.44-2.33-14.58.34-42.37.24-84.71-5.86-124.11-18.16-5.85-1.83-12.61.18-15.09,4.49-2.48,4.31.25,9.28,6.11,11.11,24.29,7.59,49.61,12.97,75.39,16.14,21.11,2.59,42.52,3.69,63.9,3.29,14.5,8.83,32.46,14.76,51.98,17.16,3.23.4,6.49.7,9.8.9,23.07,1.4,45.59-2.18,64.43-10.12,9.46,3.26,19.2,6,29.24,8.08,1.67,2.56,4.88,4.23,8.44,4.67,2.2.27,4.52.07,6.7-.67.87-.3,1.66-.68,2.38-1.1,2.8.34,5.63.63,8.48.86,14.19,1.14,28.37.78,42.45-.36-2.21,1.81-4.35,3.67-6.4,5.59-3.9,3.65-3.03,8.94,1.93,11.81,1.56.9,3.34,1.46,5.17,1.68,3.99.49,8.21-.6,10.88-3.1,8.95-8.39,19.86-15.63,32.07-21.37,1.9-.28,3.79-.56,5.68-.85,37.97-5.67,73.84-11.03,107.03-1.97,1.64.45,3.32.59,4.95.49,3.62.26,7.35-.72,9.89-2.91,4.13-3.55,3.56-8.9-1.28-11.94-1.31-.82-2.61-1.65-3.91-2.49,23.83-8.83,44.68-21.89,60.92-37.55,33.54-2.09,64.03-17.71,80.58-39.04,19.19,1.26,38.54-3.19,53.95-11.54l52.29,6.43c6.56.81,12.76-2.45,13.85-7.28s-3.34-9.39-9.9-10.2l-36.37-4.47c3.36-3.86,6.1-8.03,8.03-12.46,2.03-4.66-1.45-9.65-7.78-11.15-6.33-1.5-13.11,1.06-15.15,5.72-2.39,5.48-6.66,10.43-12.13,14.57h-.03c-6.56-.81-12.76,2.45-13.85,7.27-.04.17-.05.34-.08.51-7.11,2.85-15,4.63-22.98,5.03,1.41-3.89,2.39-7.88,2.84-11.93.53-4.66-4.19-8.76-10.52-9.14-6.34-.39-11.9,3.07-12.42,7.73-2.47,21.95-24.99,42.03-53.05,49.83,6.43-9.2,11.39-18.93,14.65-28.96,2.07-.37,4.03-1.13,5.64-2.32,16.7-12.27,29.43-27.45,37.35-43.89,1.38,0,2.79-.15,4.16-.51,17.31-4.6,35.39-7.8,53.72-9.54.29,2.74,2.28,5.34,5.71,6.88,29.23,13.18,60.35,24.31,92.5,33.06.73.2,1.47.34,2.21.43,5.58.69,11.22-1.62,13.26-5.67,2.3-4.59-.88-9.69-7.12-11.38-24.1-6.56-47.59-14.54-70.08-23.76.98-.27,1.9-.63,2.75-1.07,5.26.1,10.52.3,15.76.64,6.62.43,12.46-3.17,13.04-8.05.58-4.87-4.32-9.18-10.94-9.6-2.28-.15-4.56-.27-6.85-.37,5.29-6.25,13.29-11.32,22.53-13.87,6.23-1.72,9.38-6.82,7.04-11.4-.08-.15-.17-.29-.26-.43,52.38,19.13,107.85,33.04,165.53,41.47.12.02.25.03.37.05,6.39.79,12.51-2.3,13.78-7.01,1.29-4.8-2.95-9.46-9.47-10.42ZM179.62,655.67c-15.36-.59-31.31-1.88-43.87-7.34-6.37-2.77-12.34-7.36-15.37-12.57,18.07,1.67,36.38,1.97,54.37.81,4.44-.29,8.06-2.4,9.64-5.24,10.53,8.52,21.55,16.69,32.8,24.57-12.53.32-25.08.25-37.57-.23ZM618.39,585.81c-3.7-3.8-10.89-4.68-16.06-1.96-5.17,2.72-6.35,8.01-2.65,11.82,12.29,12.62,20.55,27.15,24.19,42.4h-24.26c1.36-9.73,2.17-19.51,2.41-29.3.11-4.65-4.92-8.47-11.23-8.56-6.31-.08-11.52,3.62-11.63,8.26-.55,23.34-4.5,46.61-11.74,69.33-17.17-16.45-33.44-34.88-49-55.48-.29-.38-.57-.77-.85-1.15,1.59-1.29,2.66-2.94,2.93-4.8,1.41-9.92,3.62-19.81,6.55-29.59,5.93.27,12.07-.37,18.05-2,5.13-1.39,9.73-3.39,13.62-5.84,24.26,1.42,49,.03,72.6-4.1-.53.46-1.01.97-1.41,1.54-3.19,4.47-5.6,9.19-7.25,14.05-1.37-1.56-2.78-3.1-4.25-4.61ZM533.05,569.39c0,.09,0,.19,0,.28-.04,0-.08.01-.12.02.04-.1.08-.2.12-.3ZM548.34,410.72c7.69-6.58,13.89-14.1,18.42-22.15,5.21.93,10.46,1.72,15.75,2.37,24.49,3.01,49.65,3.03,74.19.21-1.79,7.62-4.86,15.07-8.99,22.11-3.78,1.3-6.54,4-6.91,7.28-.1.89-.02,1.76.22,2.59-10.76,13.87-25.8,25.43-43.2,32.47-.9.36-1.7.81-2.41,1.3-9.46-.63-18.83-2.03-27.84-4.18,9.92-3.53,19.44-7.64,28.39-12.29,5.16-2.68,6.38-7.93,2.74-11.73-3.64-3.8-10.78-4.7-15.94-2.02-8.08,4.2-16.69,7.9-25.65,11.07-2.08-9.11-5.02-18.15-8.77-27.02ZM527.34,463.38c3.23-.58,6.43-1.23,9.62-1.93.3.15.62.29.95.41,13.91,5.38,28.84,9.04,44.17,10.93,17.95,2.21,36.44,1.97,54.45-.82,6.22-.96,10.2-5.45,8.89-10.03-.91-3.17-4.12-5.55-8.07-6.39,9.77-7.15,18.33-15.53,25.3-24.71,18.62,1.33,37.29,3.1,55.78,5.29-6.41,1.04-12.13,3.68-16.5,7.69-9.94,9.1-11.31,23.34-8.26,33.4.43,1.42.9,2.87,1.37,4.34,3.17,9.88,6.44,20.1.06,25.2-2.69,2.15-3.64,5.01-2.94,7.67-11,.32-22.02.4-33.01.24.72-5.33.85-10.7.31-16.04-.47-4.67-5.99-8.17-12.33-7.83-6.34.34-11.1,4.4-10.63,9.07,1.91,18.97-6.03,38.49-21.79,53.56-2.14,2.05-2.8,4.58-2.13,6.93-13.7,1.71-27.69,2.42-41.6,2.11-.53-3.14-3.44-5.94-7.8-7-6.03-1.47-12.54.94-14.54,5.38-.04.08-.09.16-.13.24-.75-.08-1.5-.14-2.25-.23-4.48-.5-8.74.99-11.16,3.56,2.57-6.08,5.41-12.1,8.55-18.03.9-.05,1.8-.17,2.7-.38,25.09-5.9,49.37-13.79,72.19-23.47,5.51-2.33,7.4-7.51,4.22-11.57-3.18-4.05-10.21-5.45-15.72-3.11-16.28,6.9-33.37,12.84-50.98,17.72,3.74-5.62,7.72-11.15,11.97-16.55,3.19-4.04,1.32-9.23-4.18-11.58-3.82-1.63-8.39-1.46-11.89.15-10.31-10.44-18.64-22.03-24.61-34.23ZM487.94,546.62c7.24-2.82,12.96-6.92,16.66-11.75,4.43,2.74,9.74,5.5,16.09,8.26-4.21,8.21-7.91,16.56-11.09,25.02-1.67.69-3.12,1.69-4.18,2.98-2.32,2.82-2.13,6.24.09,8.87-1.84,5.84-3.43,11.71-4.77,17.6-10.56-15.57-20.39-31.48-29.7-47.41,5.71-.28,11.47-1.46,16.9-3.58ZM250.4,386.35c-.22-.27-.46-.52-.71-.77,1.18-1.13,1.99-2.48,2.28-3.99,3-15.97,5.24-32,6.76-48.06,11.86,14.94,36.15,25.38,73.75,31.75l2.94.5c27.1,4.58,55.12,9.31,68.36,24.27,1.43,1.62,3.49,2.75,5.79,3.35-.95,5.98-2.41,11.99-3.94,18.26-1.55,6.38-3.12,12.87-4.16,19.48-24.96-7.14-46.56-20.03-61.17-36.58-3.46-3.92-10.59-5.04-15.92-2.5-5.33,2.54-6.85,7.79-3.38,11.71,2.53,2.87,5.26,5.63,8.13,8.31-1.49.71-2.78,1.67-3.73,2.87-6.16,7.85-16.51,13.92-28.21,16.83-1.94-1.23-3.85-2.5-5.72-3.84.93-17.88-3.05-36.09-11.59-52.83-2.23-4.38-8.87-6.6-14.82-4.96-5.95,1.64-8.96,6.52-6.73,10.9,4.03,7.89,6.89,16.17,8.55,24.56-5.66-6.14-11.09-12.64-16.49-19.27ZM376,450.35c-7.01-1.03-14.03-1.65-20.81-2.24-9.87-.86-19.19-1.68-27.88-3.67-2.46-.56-4.85-1.22-7.19-1.96,9.88-4.5,18.31-10.67,24.41-18.07,15.36,10.56,33.65,18.78,53.61,23.89.63.16,1.27.28,1.9.36.11.01.23.02.34.03,0,.12,0,.25.01.37.15,2.62.46,5.22.89,7.79-7.31-2.89-15.79-5.1-25.29-6.5ZM365.72,518.11c18.71,3.76,37.07,8.48,54.91,14.16.88.28,1.78.47,2.68.58,4.22.52,8.51-.75,11.08-3.27,4.81,8.68,9.75,17.41,14.84,26.14-31.34-1.35-61.94-8.09-89.18-19.72-5.5-2.35-12.54-.97-15.73,3.07-3.19,4.05-1.31,9.23,4.19,11.58,3.63,1.55,7.33,3.02,11.06,4.41-14.58,11.53-32.93,20.76-52.8,26.51-.21-5-.83-10.03-2.09-15.07-1.14-4.57-7.1-7.6-13.31-6.76-6.21.84-10.32,5.22-9.18,9.79,2.17,8.71,2.06,17.63,1.35,26.91l-.75-.09c-3.74-19.84-8.99-39.64-15.62-59.07.1-.02.2-.03.3-.05,32.27-7.23,65.31-13.65,98.26-19.12ZM275.39,726.71c15.02-1.62,29.92-3.99,44.59-7.13.15-.03.3-.08.45-.11,5.19,2.65,10.46,5.2,15.8,7.62-19.41,4.95-41.4,4.71-60.84-.38ZM419.18,732.29c-4.09-.33-8.12-.81-12.12-1.41-14.1-24.5-22.5-51.19-24.34-77.68-.32-4.64-5.7-8.21-12-7.98-6.31.24-11.16,4.19-10.83,8.83,1.66,23.84,8.26,47.83,19.27,70.46-1.99-.6-3.96-1.24-5.93-1.9-.25-.36-.53-.72-.86-1.07-2.67-2.77-7.19-3.99-11.44-3.42-15.1-5.96-29.63-13.3-43.71-21.23,3.51-2.86,6.72-5.91,9.62-9.13,2.44-.6,4.63-1.78,6.1-3.51,1.65-1.95,2.08-4.2,1.45-6.28,11.8-18.05,14.87-39.32,7.29-58.52-1.76-4.46-8.1-7.03-14.17-5.74-6.06,1.29-9.55,5.96-7.79,10.42,5.17,13.1,4.09,27.41-2.27,40.27-11.78-11.96-13.3-29-13.3-36.98,0-6.61.65-13.2,1.34-20.17.27-2.73.54-5.48.77-8.25,1.53.07,3.11-.07,4.65-.47,27.58-7.3,51.96-19.83,70.79-36.3,13.73,3.82,27.95,6.65,42.43,8.43,11.65,1.43,23.48,2.18,35.36,2.24,11.9,19.54,24.7,38.94,38.83,57.64,3.21,4.25,6.45,8.41,9.72,12.49-9.02-.84-18.01-1.4-26.83-1.94-12.23-.75-23.91-1.48-35.37-2.89,3.73-16.56,1-33.93-7.9-49.39-2.48-4.31-9.23-6.32-15.09-4.5-5.85,1.82-8.59,6.79-6.11,11.1,6.99,12.14,9.28,25.75,6.65,38.79-24.25-6.06-41.65-16.87-47.71-30.09-2.03-4.43-8.56-6.82-14.59-5.32-6.02,1.49-9.26,6.3-7.22,10.73,9.87,21.53,39.63,38.06,79.61,44.23,2.83.44,5.66.82,8.49,1.17,12.52,1.54,25.1,2.31,37.33,3.06,15.65.96,30.45,1.88,44.94,4.25,19.13,21.5,39.38,40.32,61.05,56.76-14.89-.63-29.87.32-44.77,1.96l-35.49-22.78c-.94-.94-2.16-1.76-3.64-2.36-.04-.02-.07-.03-.11-.04l-50.99-32.72c-4.76-3.06-11.98-2.69-16.13.81-4.15,3.5-3.65,8.82,1.11,11.87l7.81,5.01c-5.75-.73-11.53-1.26-17.33-1.57-6.3-.34-11.78,3.14-12.24,7.78-.46,4.63,4.26,8.66,10.57,9.01,22.29,1.21,44.39,5.95,64.09,13.73l19.42,12.46c-4.55,1.57-8.98,3.31-13.29,5.21-25.15,3.69-50.81,6.89-75.12,4.93ZM883.2,531.36c-18.68,5.15-33.68,16.52-40.64,30.19-6.51.16-13.02.47-19.5.96.81-1.5,1.09-3.17.67-4.87-3.44-13.78-6.94-27.88-7.98-41.87,2.66.57,5.35,1.03,8.08,1.36,8.86,1.09,17.98.95,26.79-.33.13.07.26.14.4.2,11.12,4.93,22.41,9.59,33.85,14.02-.56.09-1.11.2-1.66.35Z"/>
  <path class="cls-2" d="M270.58,7.1h0c1.05,0,1.91.07,2.56.16l-2.22,8.88,6.26-3.99c-.15,4.16-.5,9.62-.81,14.41-1.47,22.91-2.35,41.16.71,50.29.24.73.51,1.45.77,2.18l.31.85,1.93,5.36,4.92-2.88c24.42-14.3,32.94-42.25,38.05-67.7.28-1.38,2.43-3.01,5.54-3.36l33.58-3.73c.4-.04.81-.07,1.21-.07,3.61,0,6.39,1.77,6.73,3.43.07.32.09.82-.42,1.52-.72.99-2.45,2.16-5.12,2.46l-25.23,2.8-3.36.37-.74,3.3c-2.76,12.36-6.06,22.59-10.09,31.27l-2.81,6.04,6.63.66c2.42.24,4.92.36,7.42.36,23.2,0,45.13-9.95,54.56-24.75,1.01-1.58,3.65-2.68,6.43-2.68,1.17,0,2.29.18,3.34.55,2.02.7,3.05,1.83,3.34,2.65.13.36.21.87-.25,1.59-5.62,8.82-15.08,16.36-27.37,21.81-12.06,5.35-26.29,8.3-40.07,8.3-3.93,0-7.85-.24-11.65-.7-1.14-.14-2.39-.32-3.81-.56l-2.88-.48-1.72,2.36c-7.48,10.23-16.73,17.77-28.3,23.06l-4.52,2.06,2.27,4.41c2.61,5.06,5.57,10.09,8.82,14.95l1.7,2.54,3.02-.5c6.14-1.02,12.44-1.54,18.72-1.54,6.24,0,12.5.51,18.59,1.52,2.55.42,4.1,1.61,4.7,2.58.42.68.35,1.15.25,1.49-.48,1.57-3.17,3.26-6.67,3.26-.59,0-1.19-.05-1.78-.15-4.84-.8-9.88-1.21-14.98-1.21-2.69,0-5.41.11-8.09.34l-9.26.78,6.08,7.03c8.12,9.39,17.47,18.1,27.81,25.89,3.21,2.42,6.47,4.78,9.93,7.28,9.75,7.05,19.83,14.34,27.75,22.46l5.03,5.15,2.74-6.66c5.55-13.46,13.6-27.27,24.63-42.23l1.24-1.69-.41-2.05c-2.17-10.82-8.32-21.3-17.78-30.3-9.3-8.85-21.16-15.67-34.31-19.73-2.14-.66-3.26-1.81-3.6-2.67-.21-.53-.16-1,.15-1.55.92-1.62,3.66-2.8,6.5-2.8,1.06,0,2.08.15,3.05.45,5.51,1.7,10.91,3.84,16.05,6.34l4.08,1.99,2.16-4c5.81-10.74,17.87-19.86,32.27-24.41,1.05-.33,2.17-.5,3.31-.5,3.07,0,5.95,1.24,6.98,3.02.37.63.43,1.21.19,1.82-.36.94-1.56,2.19-3.84,2.91-12.97,4.1-23.23,13.09-26.77,23.47-.1.28-.26.58-.49.87l-2.86,3.67,3.62,2.93c7.91,6.39,14.17,13.62,18.6,21.49l3.34,5.93,4.4-5.19c9.65-11.39,19.84-22.35,28.83-32.02,1.25-1.34,3.56-2.17,6.04-2.17,1.59,0,3.09.34,4.36.98,1.33.67,2.22,1.6,2.38,2.49.1.59-.14,1.2-.72,1.83-29.99,32.27-67.31,72.42-75.26,116.4l-.12.68.08.69c.16,1.44.22,2.8.17,4.15-.01.36-.16.74-.45,1.14l-.76,1.06-.11,1.3c-.21,2.39-.32,4.38-.35,6.27-.05,2.58.04,5.32.25,8.38l.15,2.15,1.72,1.3c2.82,2.14,5.35,4.16,7.72,6.19.45.38,1.19,1.16,1.13,2.04-.06.78-.71,1.62-1.79,2.31-.63.4-1.38.72-2.23.95l-4.47,1.22,1.11,4.49c1.31,5.3,2.98,10.79,5.09,16.79l1.08,3.07,3.26.09c.93.02,1.88.04,2.82.04,12.84,0,25.8-2.33,37.49-6.75l1.69-.64.83-1.6c5.1-9.75.02-19.6-6.24-28.78l-1.39-2.05-2.48-.02c-.45,0-.88-.03-1.29-.08-3.38-.42-5.54-2.19-5.86-3.65-.15-.67.09-1.37.71-2.07l2.5-2.85-2.23-3.06c-5.08-6.98-10.07-14.53-12.11-22.43-.65-2.52,1.79-5.42,4.54-6.97,1.89-1.06,4.03-1.63,6.2-1.63.49,0,.98.03,1.46.09l.96.13.93-.25c.41-.11.8-.21,1.2-.32l.53-.14,4.87-1.28-1.58-4.78c-.19-.59-.12-1.14.23-1.73,5.98-10.07,9.32-21.22,9.65-32.26.06-1.92,3.19-4.07,7.29-4.07h.2c2.53.04,4.92.93,6.24,2.31.6.63.89,1.26.87,1.87-.24,8.05-1.98,16.12-5.16,23.98l-6.29,15.56,13.5-9.97c3.5-2.58,5.88-5.92,7.27-10.21.51-1.55,3.2-3.23,6.66-3.23.63,0,1.27.06,1.89.17,2.52.45,4.04,1.63,4.61,2.6.4.67.33,1.15.22,1.49-5.25,16.1-22.03,20.4-39.81,24.96l-.1.03c-2.55.65-5.19,1.33-7.86,2.06l-5.33,1.46,2.26,5.04c2.73,6.1,7.18,12.31,11.15,17.65l1.6,2.16,2.68-.27c2.72-.28,5.35-.42,7.82-.42,10.97,0,15.65,2.6,16.87,3.76-1.07,1-4.85,3.15-13.86,3.97l-7.49.68,3.84,6.46c2.51,4.22,4.18,7.98,5.1,11.51l1.56,5.95,5.35-3.04c1.29-.73,2.96-1.14,4.69-1.14,1.9,0,3.68.48,5.03,1.35,1.06.69,1.69,1.52,1.74,2.29.05.89-.71,1.67-1.17,2.05-4.48,3.73-9.65,7.14-15.36,10.14l-6.51,3.41,5.79,4.52,39.31,30.67c.5.39,1.34,1.19,1.32,2.12-.02.73-.59,1.55-1.57,2.23-1.34.93-3.23,1.46-5.19,1.46-.44,0-.89-.03-1.33-.08-1.62-.2-3.09-.76-4.14-1.58l-43.44-33.89-1.93-1.5-2.34.7c-10.64,3.17-21.72,4.96-32.94,5.3l-6.86.21,2.63,6.34c2.1,5.07,4.28,10.12,6.7,15.71,1.54,3.56,3.13,7.23,4.71,10.96l1.47,3.46,3.7-.64c5.61-.97,10.36-4.04,12.41-8.01.74-1.44,3.23-2.9,6.55-2.9.96,0,1.91.13,2.81.38,2.23.62,3.43,1.79,3.81,2.67.23.52.21.99-.07,1.52-3.21,6.23-11.15,11.31-20.71,13.25l-5.46,1.11,1.97,5.21c.99,2.62,1.91,5.18,2.74,7.6l1.4,4.08,4.19-1.01c.48-.12.93-.2,1.36-.24,4.9-.51,9.91-.77,14.89-.77s9.84.25,14.71.74l1.57.16,1.35-.81c.88-.53,1.95-.91,3.09-1.09,19.15-3.12,37.93-7.66,55.81-13.48l3.42-1.11-.15-3.59-2.02-48.59c-.38-9.09.86-19.04,12.89-23.86,1.21-.48,2.59-.74,3.98-.74,2.86,0,5.58,1.09,6.78,2.71.73.99.53,1.7.47,1.94-.31,1.11-1.52,2.18-3.23,2.87-4.57,1.83-6.68,7.53-6.29,16.95l1.68,40.42.28,6.74,6.24-2.55c5.24-2.14,10.34-4.37,15.16-6.63,1.23-.57,2.66-.88,4.15-.88,2.53,0,4.94.9,6.15,2.29.79.92.66,1.56.61,1.77-.2.93-1.16,1.87-2.57,2.53-24.15,11.3-50.3,20.09-77.71,26.13l-5.3,1.17,1.88,5.09c.18.49.15.94-.12,1.43-.76,1.43-3.25,2.87-6.53,2.87-.99,0-1.96-.13-2.88-.4-10.65-3.07-21.87-4.62-33.33-4.62-4.21,0-8.45.22-12.6.64-.12,0-.24,0-.36.02l-5.54.44,1.32,5.4c3.15,12.91,4.18,24.57,3.15,35.67-.79,8.56-2.88,17.13-4.89,25.42-2.92,12.02-5.68,23.37-5.02,35.09.57,10.04,3.79,20.95,10.15,34.32l1.92,4.04,4.15-1.69c19.41-7.92,31.2-25.52,28.04-41.85-.04-.18-.14-.74.44-1.52.74-1,2.49-2.16,5.18-2.44.38-.04.76-.06,1.14-.06,3.63,0,6.42,1.78,6.74,3.45,3.8,19.65-11.64,40.48-36.71,49.53l-5.18,1.87,2.62,4.84.41.75.29.53c7.39,13.66,13.13,24.12,18.64,33.91l1.14,2.03,2.3.34c.58.08,1.12.21,1.62.37,2.11.68,4.44,1.02,6.91,1.02,3.47,0,7.08-.69,10.42-2,6.29-2.45,10.59-6.6,11.8-11.38.13-.53.53-1,.83-1.3l2.73-2.69-2.05-3.23c-3.03-4.77-3.66-9.44-1.92-14.28.56-1.56,3.2-3.17,6.66-3.17.69,0,1.38.07,2.05.2,2.47.48,3.93,1.67,4.47,2.62.38.67.29,1.15.17,1.49-3.28,9.14,4.78,18.3,23.95,27.23l3.85,1.79,2.2-3.63c2.83-4.67,5.95-9.44,9.28-14.19l2.57-3.67-3.53-2.77c-.15-.11-.26-.21-.34-.28-18.2-16.96-31.37-37.05-38.07-58.1l-.36-1.15c-1.22-3.87-2.47-7.88-5.36-10.67-2.03-1.96-5.12-3.5-8.39-5.13-.91-.45-1.82-.91-2.7-1.37-17.52-9.09-30.29-23.06-35.03-38.34-.1-.33-.17-.79.24-1.45.59-.95,2.11-2.12,4.62-2.55.58-.1,1.18-.15,1.77-.15,3.47,0,6.14,1.67,6.62,3.22,4.24,13.68,15.39,26.04,30.59,33.92.77.4,1.55.79,2.34,1.18l.16.08c3.82,1.9,8.15,4.06,11.4,7.2,4.13,3.99,5.59,8.62,6.99,13.1l1.24,3.96,4.09-.72c4.9-.86,9.81-1.88,14.57-3.03l4.42-1.07-.89-4.46c-1.96-9.84-5.01-19.71-9.08-29.33l-.55-1.31-1.19-.79c-.13-.08-.26-.16-.39-.24h-.01c-.63-.5-1.54-1.43-1.25-2.51l.46-1.72-.78-1.6c-6.02-12.33-13.68-24.14-22.75-35.1-.75-.9-.6-1.53-.55-1.74.22-.95,1.22-1.9,2.68-2.56,1.2-.54,2.6-.82,4.04-.82,2.58,0,5.02.92,6.2,2.35,6.79,8.21,12.88,16.98,18.1,26.08l3.37,5.87,4.36-5.18c11.61-13.78,16.69-30.72,13.93-46.5-.03-.18-.13-.74.47-1.53.76-1,2.54-2.16,5.25-2.41.34-.03.69-.05,1.03-.05,3.62,0,6.46,1.83,6.74,3.48.33,1.92.57,3.93.69,5.98l.42,7.18,6.43-3.22c4.1-2.05,8.35-3.98,12.63-5.73l6.92-2.83-5.51-5.05c-.53-.49-1.16-1.25-1.12-2.13,1.08-25.9,3.76-52.07,7.97-77.78.3-1.85,3.29-3.82,7.26-3.82.35,0,.7.02,1.04.05,2.93.27,4.87,1.52,5.71,2.61.7.9.59,1.55.56,1.77-4.06,24.78-6.69,50.08-7.82,75.21l-.29,6.55,6.31-1.78c3.45-.97,6.83-1.83,10.06-2.57.76-.17,1.55-.26,2.35-.26,3.47,0,6.01,1.58,6.63,3.07.22.51.19.97-.07,1.49-.48.93-1.83,2.11-4.21,2.64-17.67,4.01-34.69,10.68-49.22,19.29l-11.41,6.76,13.12,1.99c13.72,2.08,27.88,3.14,42.1,3.14,21.89,0,43.54-2.45,64.37-7.29l6.41-1.49-3.45-5.61c-.6-.97-.49-1.87.34-2.83,3.4-3.95,6.31-8.26,8.65-12.82l2.19-4.25-4.28-2.14c-1.2-.6-2.07-1.39-2.45-2.22-10.57-23.09-27.92-44.78-50.18-62.71-.54-.43-1.43-1.32-1.39-2.37.04-.86.7-1.78,1.82-2.53,1.45-.97,3.39-1.51,5.47-1.51,2.32,0,4.48.67,5.93,1.84,4.72,3.8,9.37,7.9,13.83,12.19l2.67,2.57,3.13-1.97,26.35-16.55c1.43-.9,3.31-1.39,5.29-1.39,2.38,0,4.65.73,6.08,1.96.6.52,1.31,1.34,1.24,2.3-.07.89-.8,1.84-2,2.59l-28.18,17.7-4.64,2.91,3.55,4.17c4.52,5.31,8.73,10.86,12.52,16.5l13.06,19.46-4.48-23-.09-.46c-.08-.45-.17-.9-.27-1.34-.05-.21-.2-.86.42-1.75.75-1.07,2.56-2.35,5.4-2.7.48-.06.96-.09,1.44-.09,3.82,0,6.83,1.92,7.24,3.71,3.57,15.46.48,31.97-8.72,46.5l-7.37,11.64,12.97-4.66c2.91-1.04,5.83-2.16,8.67-3.3,1.21-.49,2.6-.75,4.01-.75,2.85,0,5.57,1.08,6.77,2.7.74.99.54,1.71.48,1.94-.31,1.11-1.51,2.18-3.21,2.86-15.62,6.31-32.48,11.26-50.12,14.71l-5.45,1.07,1.92,5.21c.13.35.16.67.09,1.02-1.4,7.23-3.91,14.52-7.45,21.65l-3.12,6.28,6.99.55c21.26,1.66,42.57,3.88,63.35,6.59,2.83.37,4.62,1.65,5.36,2.72.55.8.5,1.38.41,1.75-.42,1.77-3.31,3.68-7.24,3.68-.03,0-.06,0-.09,0l-15.7-1.85c-18.61-2.2-37.45-3.98-56-5.31l-2.56-.18-1.55,2.04c-6.75,8.88-14.93,16.88-24.32,23.75l-8.52,6.24,10.33,2.21c2.27.49,4.13,1.75,4.5,3.06.09.31.16.81-.28,1.49-.62.97-2.21,2.16-4.78,2.55-9.63,1.49-19.53,2.24-29.41,2.24-7.93,0-15.91-.49-23.73-1.45-15.09-1.85-29.57-5.44-43.03-10.64-.19-.07-.39-.16-.61-.27l-1.47-.71-1.59.35c-3.22.71-6.4,1.34-9.45,1.89l-6.17,1.11,2.76,5.63c6.23,12.72,14.8,24.66,25.5,35.48l2.33,2.36,3.02-1.39c1.21-.56,2.68-.86,4.15-.86,1.38,0,2.73.26,3.9.76,1.78.76,2.62,1.83,2.81,2.59.05.2.21.82-.49,1.71-4.17,5.28-8.27,10.96-12.2,16.86l-7.04,10.58,12.25-3.4c17.82-4.94,35.17-10.97,51.56-17.92,1.17-.49,2.51-.76,3.89-.76,2.65,0,5.1.95,6.26,2.43.62.79.57,1.35.48,1.7-.19.75-1.04,1.82-2.82,2.58-22.57,9.57-46.6,17.38-71.42,23.22-.6.14-1.23.23-1.86.26l-2.68.14-1.26,2.37c-.75,1.41-1.48,2.84-2.21,4.28l-.07-2.74-7.8,20.05-8.91,21.07,2.33-2.47-.32,1.06c-3.02,10.11-5.28,20.29-6.7,30.28-.11.79-.81,1.46-1.22,1.79l-3.55,2.87,2.74,3.65c.13.17.25.34.38.51.16.22.32.44.49.66,15.65,20.71,32.3,39.57,49.51,56.04l5.48,5.25,2.31-7.23c7.38-23.15,11.4-46.92,11.96-70.66.04-1.48,2.66-3.64,6.69-3.64h.14c2.81.04,4.84,1.12,5.79,2.11.53.55.79,1.09.77,1.61-.22,9.49-1.02,19.17-2.36,28.77l-.75,5.39h5.45s24.26-.01,24.26-.01h6s-1.39-5.83-1.39-5.83c-3.83-16.05-12.61-31.47-25.4-44.6-.62-.64-.89-1.27-.79-1.87.14-.86.98-1.78,2.26-2.46,1.29-.68,2.84-1.04,4.48-1.04,2.42,0,4.71.81,5.98,2.11,1.27,1.3,2.57,2.71,4.09,4.44l5.41,6.14,2.63-7.75c1.52-4.48,3.74-8.79,6.62-12.81.17-.23.39-.47.67-.71l3.28-2.85,5.1,1.38c.38.1.68.2.93.29,1.9.73,2.83,1.84,3.06,2.62.1.34.17.88-.37,1.65-7.47,10.47-9.88,23.17-6.59,34.84.19.69-.09,1.4-.83,2.13l-2.26,2.21,1.18,2.93c2.02,5.02,3.58,10.19,4.64,15.38l.77,3.79h3.87s5.73,0,5.73,0c4.09,0,6.71,2.18,6.71,3.68,0,.66-.45,1.25-.83,1.63-1.26,1.26-3.5,2.04-5.86,2.05l-55.84.02h-.06s-.23,0-.23,0l-3.94-.09-.8,3.86c-2.48,11.98-5.87,23.95-10.06,35.6-.11.29-.3.6-.59.92l-3.26,3.62,3.71,3.16c7.24,6.16,14.78,12.12,22.42,17.71l1.94,1.42,2.29-.72c35.49-11.21,65.35-33.14,81.92-60.18l1.84-3-2.34-2.63c-.28-.31-.47-.61-.58-.9-5.29-14-13.59-27.16-24.68-39.12-.58-.63-.82-1.24-.72-1.83.16-.89,1.05-1.82,2.38-2.49,1.26-.63,2.77-.97,4.35-.97,2.48,0,4.8.84,6.05,2.18,6.41,6.91,12.04,14.38,16.73,22.18l6.01,10.01,2.66-11.37c.62-2.65,1.11-5.33,1.46-7.97.22-1.67,3.04-3.53,6.74-3.53.26,0,.53,0,.8.03,1.46.11,2.82.5,3.93,1.14l3.06,1.76,2.56-2.43c20.65-19.56,31.65-44.86,30.17-69.41-.04-.61.23-1.23.79-1.85,1.26-1.38,3.61-2.29,6.12-2.38.13,0,.25,0,.38,0,4.04,0,7.19,2.12,7.3,4.02.45,7.53-.21,15.21-1.97,22.84l-1.71,7.38,7.38-1.7c11.05-2.55,22.44-4.6,33.86-6.1l9.87-1.3-7.23-6.84c-.37-.35-.84-.9-1-1.54-5.09-20.42-10.36-41.54-7.96-62.8,1.13-10.06,4.02-20.05,8.57-29.7l1.15-2.44-1.51-2.23c-.25-.37-.39-.72-.44-1.07-1.71-13.73-3.49-27.92-11.55-40.35-8.16-12.58-22.83-21.14-37.37-21.82-2.99-.14-5.07-1.35-6.02-2.44-.54-.62-.79-1.23-.74-1.83.16-1.88,3.19-3.97,7.28-3.97.18,0,.37,0,.56.01,5.94.28,11.87,1.38,17.61,3.27l7,2.31-.81-7.33c-1.98-17.83-8.61-35.65-19.15-51.55-.57-.86-.46-1.48-.33-1.88.3-.9,1.38-2.13,3.52-2.9,1.13-.41,2.4-.62,3.67-.62,2.98,0,5.75,1.15,6.89,2.86,13.98,21.07,21.12,44.56,20.66,67.93,0,.07-.01.14-.02.21l-.34,2.48,1.86,1.68c3.72,3.35,6.93,7.09,9.53,11.1,3.68,5.67,6.44,12.11,8.44,19.69l2.25,8.52,5.86-6.58c1.05-1.18,2.12-2.34,3.19-3.45,1.36-1.41,3.82-2.29,6.42-2.29,1.74,0,3.38.38,4.75,1.09,1.42.74,2.36,1.76,2.52,2.74.11.69-.17,1.41-.86,2.12-2.22,2.31-4.42,4.82-6.55,7.45l-9.06,11.21,13.94-3.65c10.79-2.82,21.27-6.35,31.15-10.47l4-1.67-1.31-4.13c-.19-.59-.1-1.15.27-1.75,5.18-8.41,6.62-18.38,4.06-28.08-3.03-11.48-11.49-21.75-23.2-28.18-1.35-.74-2.24-1.75-2.37-2.71-.1-.71.22-1.44.96-2.17,1.37-1.35,3.8-2.2,6.33-2.19,1.79,0,3.53.42,4.92,1.18,20.36,11.18,31.58,30.77,28.59,49.91l-1.54,9.89,8.62-5.07.05-.03.05-.03h0c1.43-.88,3.29-1.37,5.24-1.37,2.4,0,4.69.74,6.11,1.99.59.52,1.28,1.34,1.2,2.29-.08.9-.82,1.85-2.04,2.61-24.86,15.36-54.74,26.47-86.42,32.13l-2.45.44-1.03,2.27c-3.82,8.43-6.3,17.2-7.4,26.07l-.47,3.81,3.63,1.25c6.47,2.22,13.87,3.4,21.39,3.4,17.1,0,33.64-5.96,43.16-15.56,1.36-1.37,3.8-2.23,6.35-2.23,1.59,0,3.13.32,4.43.93l1.8.84,1.86-.69c16.96-6.32,28.92-19.33,30.48-33.14.21-1.85,3.25-3.92,7.27-3.92.24,0,.48,0,.73.02,2.94.18,4.97,1.39,5.89,2.47.52.61.76,1.22.7,1.81l-.59,6.06,6.02-.92,62.93-9.58c.57-.09,1.16-.13,1.74-.13,3.83,0,6.74,1.88,7.23,3.62.1.37.18.95-.33,1.74-.68,1.06-2.4,2.34-5.17,2.77l-72.65,11.05c-.55.08-1.13.13-1.75.13h-2.51l-1.41,2.08c-9.31,13.71-26.71,23.79-46.59,26.98-.06,0-.12.02-.18.02l-1.04.16-.88.58c-2.2,1.47-4.57,2.84-7.03,4.08l-9.22,4.64,9.53,3.97c15.32,6.38,30.96,12.29,46.49,17.58l4.47,1.52,1.53-4.47c.28-.82,1.03-1.61,2.12-2.24,2.89-1.67,5.7-3.56,8.35-5.63l2.26-1.77-.53-2.83c-.09-.5,0-.97.32-1.49.88-1.45,3.08-2.58,5.58-2.88l1.96-.23,1.21-1.55c4.62-5.91,7.75-12.24,9.32-18.81.42-1.77,3.31-3.69,7.23-3.69.47,0,.95.03,1.42.09h.08c2.83.38,4.63,1.65,5.37,2.73.55.8.5,1.38.41,1.75-1.44,6.04-4.16,12-8.08,17.71l-3.88,5.66,6.67,1.62c18.11,4.4,36.88,6.62,55.79,6.62,1.56,0,3.13-.02,4.67-.05h.24c4.09,0,7.23,2.14,7.3,4.06.02.61-.26,1.24-.85,1.86-1.3,1.38-3.68,2.27-6.21,2.32-1.7.03-3.43.05-5.14.05-10.65,0-21.42-.66-32.02-1.96-12.03-1.48-23.93-3.8-35.38-6.9l-2.37-.64-1.89,1.57c-2.71,2.25-5.62,4.37-8.66,6.28l-8.71,5.5,9.85,3.03c39.34,12.08,80.5,21.31,122.36,27.43,2.79.41,4.53,1.69,5.23,2.76.52.79.45,1.38.35,1.74-.47,1.75-3.36,3.63-7.22,3.63-.47,0-.94-.03-1.41-.09-.09-.01-.18-.02-.26-.03-57.17-8.36-112.55-22.23-164.59-41.23l-6.8-2.48-6.7-2.59c-11.41-4.41-22.71-9.09-33.6-13.91l-.04-.02c-.08-.04-.17-.09-.26-.13l-1.31-.63-1.44.21c-4.63.67-9.36,1.01-14.03,1.01-3.87,0-7.74-.23-11.5-.7-2.53-.31-5.1-.75-7.66-1.29l-6.18-1.32.47,6.3c1.07,14.46,4.65,28.8,8.11,42.67.08.31.13.79-.23,1.47l-4.14,7.64,8.66-.66c6.16-.47,12.64-.79,19.26-.95l2.82-.07,1.28-2.52c6.44-12.66,20.52-23.04,37.68-27.77.32-.09.69-.16,1.15-.24l6.46-1.04,2.29,3.88c.04.07.09.15.13.22v.02c.3.59.31,1.13.05,1.72-.43.97-1.74,2.25-4.15,2.91-9.99,2.75-18.82,8.21-24.88,15.37l-6.22,7.34,9.61.44c2.51.12,4.72.24,6.76.37,2.95.19,4.98,1.42,5.88,2.51.51.61.73,1.22.66,1.81-.22,1.85-3.26,3.91-7.27,3.91-.25,0-.51,0-.77-.02-5.08-.33-10.45-.55-15.98-.65l-1.21-.02-1.07.56c-.53.28-1.14.51-1.82.7l-13.34,3.7,12.81,5.25c22.76,9.32,46.53,17.38,70.63,23.94,2.42.66,3.75,1.94,4.19,2.91.27.61.25,1.16-.06,1.78-.92,1.84-3.89,3.18-7.06,3.18-.46,0-.93-.03-1.39-.08-.52-.06-1.04-.17-1.54-.3-31.91-8.69-62.79-19.73-91.79-32.81-1.7-.77-2.83-1.94-2.94-3.06l-.49-4.66-4.67.44c-18.68,1.78-37.01,5.03-54.49,9.68-.89.24-1.85.36-2.86.36h-.06l-2.99-.02-1.3,2.7c-7.68,15.95-20.09,30.52-35.88,42.12-.96.71-2.23,1.22-3.67,1.48l-2.79.5-.88,2.7c-3.08,9.48-7.8,18.81-14.03,27.71l-7.55,10.81,12.7-3.53c14.47-4.02,27.99-11.37,38.06-20.7,10.72-9.92,17.09-21.39,18.42-33.17.19-1.68,3.01-3.56,6.74-3.56.23,0,.45,0,.68.02,2.76.17,4.65,1.3,5.5,2.31.45.54.66,1.07.6,1.58-.4,3.55-1.27,7.2-2.59,10.85l-2.42,6.69,7.11-.35c8.32-.41,16.8-2.27,24.51-5.36l2.52-1.01.4-2.69.03-.21v-.02c.47-1.77,3.45-3.64,7.22-3.64.47,0,.95.03,1.41.09l1.93.25,1.55-1.17c6.28-4.75,10.99-10.44,13.61-16.45.82-1.88,3.88-3.31,7.11-3.31.88,0,1.76.1,2.6.3,2.53.6,3.97,1.89,4.47,2.89.3.61.32,1.15.06,1.75-1.69,3.86-4.13,7.65-7.27,11.24l-5.86,6.72,8.85,1.09,36.37,4.47c2.85.35,4.67,1.62,5.42,2.7.63.89.48,1.54.43,1.75-.41,1.79-3.41,3.71-7.24,3.71-.47,0-.95-.03-1.42-.09l-52.29-6.43-1.5-.18-1.33.72c-13.29,7.21-29.36,11.18-45.23,11.18-2.05,0-4.13-.07-6.16-.2l-2.51-.16-1.54,1.99c-16.3,21.01-45.86,35.27-77.13,37.22l-1.74.11-1.25,1.21c-16.01,15.45-36.51,28.08-59.28,36.51l-8.86,3.29,7.94,5.13c1.31.85,2.63,1.69,3.96,2.52,1.09.69,1.76,1.54,1.82,2.32.07.87-.67,1.64-1.11,2.02-1.31,1.13-3.42,1.8-5.64,1.8-.27,0-.54-.01-.81-.03l-.32-.02-.32.02c-.23.01-.47.02-.71.02-.93,0-1.84-.12-2.7-.35-12.38-3.38-25.8-5.02-41.02-5.02-21.89,0-44.27,3.34-67.95,6.88-1.89.28-3.78.56-5.68.85l-.69.1-.63.3c-12.79,6.01-23.99,13.48-33.29,22.2-1.29,1.21-3.45,1.94-5.76,1.94-.44,0-.88-.03-1.31-.08-1.25-.15-2.42-.53-3.38-1.08-1.16-.67-1.91-1.55-2-2.35-.09-.77.46-1.46.93-1.91,1.88-1.77,3.96-3.58,6.16-5.38l11.74-9.61-15.12,1.23c-8.65.7-16.53,1.05-24.09,1.05-6.06,0-11.98-.23-17.6-.68-2.72-.22-5.5-.5-8.28-.84l-1.61-.2-1.39.83c-.48.29-.97.51-1.49.69-1.03.35-2.13.53-3.28.53-.44,0-.87-.03-1.3-.08-2.27-.28-4.2-1.26-5.05-2.55l-1.08-1.65-1.93-.4c-9.42-1.95-19.06-4.62-28.66-7.92l-1.71-.59-1.67.7c-15.58,6.57-33.84,10.05-52.8,10.05-3.15,0-6.35-.1-9.51-.29-3.19-.19-6.38-.49-9.51-.87-18.84-2.31-36.16-8.02-50.1-16.51l-1.18-.72-1.38.03c-2.82.05-5.68.08-8.51.08-18.33,0-36.75-1.12-54.73-3.33-25.66-3.15-50.74-8.52-74.56-15.96-2.12-.66-3.24-1.81-3.57-2.67-.21-.53-.16-1.01.16-1.55.95-1.64,3.62-2.79,6.49-2.79,1.07,0,2.1.15,3.08.46,39.06,12.2,80.5,18.38,123.16,18.38.79,0,1.59,0,2.39,0h1.38s1.16-.76,1.16-.76c1.34-.86,3.11-1.34,5-1.34,1.72,0,3.38.4,4.68,1.14l1.18.67,1.35-.05c18.07-.72,36.15-2.6,53.73-5.59l12.92-2.2-11.34-6.57c-6.52-3.78-13.55-8-22.1-13.27-13.11-8.08-23.81-14.84-33.68-21.29l-1.31-.86-1.57.1c-12.77.79-25.72,1.19-38.49,1.19-7.79,0-15.65-.15-23.38-.44-9.09-.35-15.98-.85-22.36-1.63-11.93-1.47-21.85-3.97-30.32-7.65-14.03-6.1-23.84-16.36-25.61-26.77l-.56-3.33-3.33-.55c-7.38-1.23-14.71-2.7-21.79-4.38-2.35-.56-3.68-1.74-4.13-2.66-.26-.52-.27-.98-.05-1.5.64-1.47,3.18-3.03,6.61-3.03.83,0,1.65.1,2.44.28,7.56,1.8,15.41,3.34,23.35,4.58l.95.15.93-.23c.81-.2,1.66-.3,2.52-.3.44,0,.89.03,1.36.09h.09c1.3.19,2.49.59,3.45,1.19l.89.55,1.03.12c12.7,1.52,25.64,2.29,38.49,2.29,6.14,0,12.33-.18,18.4-.53l11.53-.67-8.68-7.62c-11.52-10.11-21.77-20.31-30.49-30.3l-1.18-1.36-1.78-.23c-.29-.04-.57-.08-.83-.14-26.49-5.57-54.08-8.4-81.98-8.4-14.28,0-28.59.76-42.54,2.25-.39.04-.78.06-1.17.06-.44,0-.88-.03-1.31-.08-3.06-.38-5.16-2-5.43-3.36-.04-.18-.15-.74.43-1.52.73-1,2.47-2.16,5.15-2.45,11.05-1.18,22.45-1.93,33.87-2.23l12.63-.32-9.73-8.06c-14.24-11.79-25.11-25.89-31.45-40.78-.22-.51-.2-.98.06-1.49.47-.92,1.82-2.1,4.18-2.65.77-.18,1.57-.27,2.37-.27,3.46,0,6,1.58,6.63,3.06,7,16.46,19.52,31.49,36.19,43.46.57.41,1.53,1.26,1.49,2.28l-.2,4.76,4.76.18c16.69.62,33.39,2.22,49.63,4.75l10.96,1.71-6.35-9.1c-8.86-12.7-15.79-25.67-20.61-38.55-.12-.33-.22-.8.14-1.45.52-.93,1.93-2.1,4.35-2.59.68-.14,1.39-.21,2.09-.21,3.4,0,6.02,1.58,6.59,3.11,2.04,5.46,4.56,11.1,7.49,16.78l3.02,5.84,4.58-4.71c9.37-9.62,13.48-22.24,11-33.76-.07-.31-.1-.81.4-1.51.71-.99,2.42-2.16,5.09-2.47.42-.05.84-.07,1.26-.07,3.59,0,6.37,1.76,6.73,3.41,3.43,15.94-4.4,32.96-20.44,44.42l-3.74,2.67,2.56,3.82c14.8,22.04,35.67,43.6,63.8,65.91l3.53,2.8,2.97-3.39c.52-.59,1.28-1.11,2.19-1.5,1.17-.5,2.52-.76,3.89-.76,2.64,0,5.1.95,6.26,2.42l17.97,22.85c.62.79.54,1.36.51,1.55l-.47,2.97,2.49,1.68c1.45.98,2.91,1.95,4.37,2.92l1.36.91,1.63-.13c2.37-.19,5.18-.41,8.08-.68.33-.03.67-.05,1.01-.05,3.62,0,6.46,1.83,6.75,3.48.1.56-.13,1.15-.68,1.76l-3.73,4.16,4.71,3c6.72,4.28,13.86,8.74,21.82,13.65,3.56,2.19,6.84,4.2,10.04,6.12l2.8,1.69,2.57-2.02c2.58-2.03,5.01-4.2,7.22-6.45l3.81-3.89-4.38-3.24c-14.73-10.9-22.84-28.35-22.83-49.14,0-4.93.37-9.85.7-13.59l.39-4.55-4.53-.56-1.62-.2-1.64-.2-1.41.86c-1.09.66-2.44,1.08-3.91,1.21-.32.03-.65.04-.97.04-.44,0-.88-.03-1.31-.08-2.04-.25-3.85-1.1-4.83-2.28l-1.2-1.44-1.86-.23-7.1-.87c-2.65-.33-4.34-1.5-5.04-2.49-.49-.7-.45-1.2-.38-1.51.37-1.63,3.15-3.38,6.71-3.38.22,0,.44,0,.66.02l6.15.37-1.22-6.04c-1.35-6.68-2.87-13.37-4.53-19.89l-1.01-3.99-4.09.45c-2.8.31-5.67.46-8.53.46-3.27,0-6.57-.2-9.81-.6-12.54-1.54-24.11-5.94-32.56-12.38-.89-.68-1.38-1.44-1.37-2.14.01-.72.57-1.53,1.52-2.2,1.34-.95,3.25-1.5,5.25-1.5,2.09,0,4.06.59,5.41,1.62,8,6.1,19.84,9.74,31.66,9.74,1.59,0,3.19-.07,4.74-.2l5.81-.49-1.67-5.59c-.79-2.64-1.62-5.32-2.46-7.98l-.46-1.43-1.2-.91c-14.7-11.1-21.94-27.3-18.9-42.28.34-1.65,3.12-3.42,6.72-3.42.4,0,.81.02,1.22.07,2.67.29,4.4,1.45,5.12,2.44.58.79.46,1.35.43,1.54-1.57,7.74-.28,15.76,3.75,23.2l1.45,2.69,3.05-.22c.31-.02.58-.03.83-.03.07,0,.13,0,.2,0l2.31.06,1.47-1.78c.79-.97,2.2-1.73,3.85-2.1,17.02-3.81,34.45-7.45,51.81-10.81l31.83-6.15-32.26-3.21-.36-.04-.46-.05c-2.72-.27-4.49-1.44-5.25-2.45-.59-.78-.49-1.34-.46-1.52.29-1.64,3.13-3.46,6.73-3.46.35,0,.72.02,1.07.05,17.13,1.68,34.31,4.15,51.05,7.34l.61.12.62-.04c.25-.02.51-.03.76-.03,1.61,0,3.2.37,4.48,1.04l.59.31.66.13c17.67,3.62,35.24,8.15,52.22,13.44l8.84,2.76-3.18,3.12c-1.28,1.25-3.53,2.03-5.88,2.03-.44,0-.87-.03-1.3-.08-.63-.08-1.24-.21-1.82-.4-17.88-5.69-36.53-10.5-55.42-14.29l-.85-.17-.86.14c-33.13,5.49-66.24,11.94-98.43,19.15-.1.02-.2.03-.3.05l-5.28,1.07,1.74,5.1c6.58,19.28,11.78,38.93,15.45,58.41l.64,3.4,3.43.42.75.09,4.92.6.38-4.94c.66-8.5.99-18.53-1.48-28.42-.08-.31-.12-.79.33-1.47.66-.97,2.29-2.14,4.88-2.49.48-.06.96-.1,1.44-.1,3.48,0,6.25,1.71,6.65,3.31,1.09,4.37,1.73,8.99,1.95,14.12l.26,6.02,5.79-1.67c20.47-5.92,39.29-15.37,54.43-27.34l6.59-5.21-7.87-2.94c-3.81-1.42-7.46-2.88-10.86-4.33-1.78-.76-2.62-1.83-2.81-2.59-.09-.35-.14-.91.49-1.71,1.16-1.47,3.61-2.42,6.24-2.42,1.38,0,2.73.26,3.91.77,27.58,11.78,58.99,18.73,90.84,20.1l8.66.37-4.36-7.49c-4.76-8.18-9.6-16.7-14.79-26.05l-3.02-5.44h0s-4.53-8.31-4.53-8.31c-2.08-3.81-4.15-7.62-6.19-11.4-3.02-5.58-6.43-11.9-9.47-18.33l-.93-1.98-2.11-.57c-1.64-.45-2.97-1.26-3.63-2.23-7.19-10.48-23.8-14.91-36.47-16.77-6.27-.92-12.59-1.48-19.29-2.06-9.98-.87-20.3-1.78-30.52-4.04l-1.65-.36-1.51.76-.09.04c-.12.06-.23.12-.35.17-17.99,7.77-38.38,11.55-62.33,11.55-10.8,0-22.2-.76-34.87-2.31-20.09-2.47-40.69-6.7-58.18-10.5-2.41-.52-3.79-1.71-4.29-2.64-.35-.67-.24-1.15-.1-1.49.61-1.52,3.26-3.1,6.63-3.1.76,0,1.53.08,2.26.24,16.66,3.63,36.24,7.65,55.21,10.02l4.94.62.37-4.96c.87-11.67-2.6-23.2-10.04-33.34-.57-.77-.5-1.32-.4-1.66.22-.78,1.13-1.87,2.99-2.61,1.12-.45,2.41-.68,3.71-.68,2.68,0,5.22,1.01,6.33,2.52,8.32,11.34,12.08,24.12,10.87,36.97l-.47,4.95,4.97.22c3.35.15,6.66.22,9.84.22,14.77,0,27.73-1.55,39.61-4.74l12.25-3.29-11.41-5.54c-1.02-.5-1.9-.94-2.7-1.35l-1.26-.65-1.41.15c-.12.01-.24.03-.37.04h-.09c-.36.05-.73.07-1.1.07-.44,0-.88-.03-1.31-.08-3.08-.38-5.18-2.01-5.43-3.38,0-.04-.02-.11-.02-.23l-.09-2.39-1.97-1.35c-19.07-13.03-34.05-30.58-46.6-46-.69-.85-.75-1.6-.21-2.44l3.48-5.35-6.13-1.77c-39.37-11.39-78.99-23.91-117.74-37.23l-2.92-1-2.1,2.26c-10.69,11.54-28.87,19.08-47.45,19.66-.13,0-.25,0-.38,0-.47,0-.95-.03-1.41-.09-3.52-.43-5.8-2.38-5.89-3.94-.04-.61.23-1.23.8-1.85,1.26-1.38,3.61-2.29,6.13-2.37,12.1-.38,24.3-5.03,32.62-12.42l5.99-5.32-7.56-2.68c-11.88-4.21-21.68-7.75-30.85-11.14-1.95-.72-2.92-1.84-3.17-2.64-.11-.34-.19-.87.32-1.62,1.06-1.56,3.62-2.6,6.38-2.6,1.22,0,2.44.21,3.52.61l.26.1.21.08,4.25,1.57,1.76-4.18c6.99-16.6,8.81-34.43,5.28-51.58-.04-.21-.18-.86.47-1.76.78-1.08,2.64-2.34,5.51-2.66.43-.05.86-.07,1.29-.07,3.88,0,6.88,1.94,7.25,3.76,3.88,18.81,1.58,38.33-6.66,56.46l-2.13,4.68,4.84,1.74c3.36,1.21,6.74,2.39,10.12,3.58l2.46.86,1.31.46,1.35-.32c.84-.2,1.71-.3,2.58-.3.98,0,1.94.12,2.86.37,1.94.52,3.48,1.54,4.13,2.74l.88,1.62,1.74.6c15,5.18,30.4,10.32,45.77,15.29l4.91,1.59,1.16-5.03c6.16-26.79.09-55.87-16.66-79.79-.53-.76-.45-1.3-.35-1.64.24-.79,1.19-1.9,3.1-2.62,1.1-.41,2.33-.63,3.58-.63,2.73,0,5.29,1.04,6.37,2.58,4.74,6.77,8.72,13.91,11.81,21.2l4.53,10.7,4.24-10.82c4.63-11.82,6.31-24.08,5.01-36.42l-.6-5.68-5.47,1.64c-1,.3-2.12.46-3.21.46-.47,0-.94-.03-1.39-.08-1.19-.15-2.3-.47-3.27-.97l-64.26-32.52c-1.45-.73-2.42-1.77-2.6-2.76-.12-.69.15-1.39.81-2.1,1.35-1.44,3.82-2.34,6.46-2.34,1.7,0,3.32.36,4.68,1.05l57.27,28.98,11.18,5.66-4.64-11.63c-.79-1.98-1.64-3.9-2.53-5.7-2.46-4.99-5.42-9.79-8.56-14.86-6.04-9.79-12.29-19.9-14.15-30.88-.04-.22-.15-.87.55-1.78.83-1.08,2.76-2.34,5.67-2.6.36-.03.71-.05,1.07-.05,3.96,0,6.96,1.98,7.27,3.82,1.72,10.12,7.42,19.35,13.46,29.13,3.07,4.97,6.24,10.11,8.84,15.36,13.66,27.69,10.56,59.76-8.29,85.81-.45.62-1.16,1.2-2.05,1.65l-2.92,1.51.39,3.27c1.51,12.6.55,25.26-2.85,37.63l-1.21,4.41,4.36,1.37c14.76,4.62,29.79,9.17,44.66,13.53l5.12,1.5.88-5.26c9.17-54.71,9.49-110.26.96-165.1l-.22-1.41-.97-1.06c-9.34-10.19-17.79-20.95-25.14-31.99l-1.46-2.19-2.63.08c-.13,0-.26,0-.39,0-.47,0-.92-.03-1.34-.08-.42-.05-.84-.13-1.25-.23-2.52-.61-3.94-1.9-4.44-2.9-.3-.61-.31-1.15-.04-1.75.66-1.49,1.31-3.07,2.03-4.99l.78-2.06-1.07-1.92c-1.93-3.45-3.71-6.83-5.31-10.04-.31-.62-.32-1.16-.04-1.77.44-.98,1.78-2.25,4.21-2.91.75-.2,1.54-.32,2.37-.36l4.13-.23.28-3.09c2.18.39,6,2.52,8.73,6.21,1.89,2.56,3.83,6.67,2.29,11.69l-.61,2,1.07,1.8c8.07,13.56,17.75,26.69,28.78,39l.48.54.62.37c.89.53,1.53,1.19,1.81,1.85l.33.79.59.63c.92.98,1.84,1.97,2.78,2.94.61.63.91,1.26.89,1.88-.02.66-.42,1.37-1.12,2.02l-1.85,1.68.35,2.48c4.75,33.71,6.18,67.98,4.27,101.85l-.37,6.55,6.33-1.71.23-.06.13-.04c.77-.17,1.56-.26,2.36-.26,3.47,0,6,1.58,6.63,3.07,3.27,7.74,10.1,14.09,20.88,19.41,10.12,4.99,23.5,8.97,40.9,12.17l7.25,1.33-1.81-7.15-5.65-22.34c-.08-.31-.13-.81.34-1.5.66-.98,2.31-2.16,4.92-2.52.49-.07.98-.1,1.47-.1,3.51,0,6.31,1.73,6.72,3.35l7.52,29.72.74,2.93,2.97.56c16.83,3.19,35.99,7.7,50.56,17l8.26,5.27-1.01-9.75c-2.06-19.95-9.91-39.57-17.78-57.97l-.95-2.22-2.35-.54c-.82-.19-1.56-.46-2.2-.8-24.61-13.22-51.81-23.32-80.84-30.03-2.37-.55-3.72-1.73-4.19-2.65-.26-.52-.28-.98-.06-1.49.64-1.51,2.93-2.74,5.57-3l8.05-.79-4.63-6.63-14.65-21.01c-.53-.76-.45-1.3-.35-1.64.25-.79,1.19-1.9,3.12-2.62,1.09-.41,2.33-.63,3.57-.63,2.73,0,5.29,1.04,6.37,2.58l23.91,34.28c.14.19.24.39.31.59l.81,2.2,2.24.69c13.54,4.16,26.74,9.11,39.22,14.69l10.82,4.84-4.51-10.97c-1.15-2.79-2.13-5.24-3.01-7.51l-.42-1.07-.86-.76c-.56-.49-1.18-1.24-1.06-2.09l.03-.15.27-1.31-.46-1.26c-4.65-12.89-7.45-23.71-8.79-34.05l-.27-2.09-1.73-1.2c-16.95-11.74-38.32-22.44-67.23-33.67l-1.93-.75-1.86.9c-.62.3-1.29.54-1.97.7-.84.2-1.71.3-2.59.3-.47,0-.93-.03-1.39-.08-2.73-.34-5.04-1.63-5.73-3.23l-1.08-2.48-.81-1.87-1.91-.69c-6.83-2.47-13.55-4.84-20.05-7.14-2-.71-3.01-1.83-3.29-2.65-.12-.36-.2-.87.27-1.6,1.02-1.56,3.66-2.66,6.41-2.66,1.17,0,2.35.2,3.39.56l.17.06.21.07,10.26,3.61-4.34-9.97-12.41-28.49c-.26-.61-.25-1.15.06-1.75.5-1,1.94-2.29,4.47-2.89.84-.2,1.71-.3,2.59-.3,3.69,0,6.43,1.71,7.13,3.32l19.47,44.68.8,1.84,1.88.7c27.17,10.14,46.88,19.03,63.91,28.84l6.45,3.71.63-7.41c.23-2.64.51-5.03.88-7.31l.13-.83-.16-.82c-3.11-16.1-21.03-29.05-38.38-41.59-3.36-2.43-6.83-4.94-10.1-7.41-29.04-21.91-49.86-49.82-60.21-80.71-1.41-4.21-2.66-8.68-3.72-13.29l-.83-3.63-3.72-.05c-.5,0-.91-.03-1.27-.07l-31.71-3.9c-2.85-.35-4.67-1.62-5.42-2.7-.63-.89-.48-1.54-.43-1.75.41-1.79,3.41-3.71,7.23-3.71.47,0,.95.03,1.42.09l26.6,3.27,5.85.72-.55-5.86c-.6-6.4-.74-12.86-.39-19.22l.24-4.34-4.3-.61c-1.3-.18-2.48-.38-3.58-.6.07-.92.42-2.43,1.27-4.15,1.12-2.26,2.35-3.43,2.9-3.73l4.67,1.02.92-4.77c.2-1.05,4.96-3.52,11.71-3.52M274.8,421.2l-3.27-16.5c-1.76-8.89-4.78-17.57-8.98-25.8-.27-.53-.29-1-.06-1.52.39-.88,1.6-2.05,3.83-2.66.89-.25,1.83-.37,2.78-.37,3.33,0,5.83,1.47,6.56,2.92,8.13,15.94,11.96,33.38,11.08,50.43l-.13,2.58,2.1,1.51c1.9,1.36,3.9,2.71,5.95,4l1.71,1.08,1.96-.49c12.86-3.2,24.08-9.94,30.8-18.5.45-.58,1.16-1.1,2.03-1.52l6.31-2.99-5.11-4.75c-2.86-2.66-5.49-5.34-7.81-7.98-.82-.93-.68-1.58-.64-1.79.19-.92,1.13-1.86,2.51-2.52,1.24-.59,2.69-.9,4.21-.9,2.51,0,4.91.89,6.12,2.26,15.11,17.13,37.63,30.63,63.42,38l5.15,1.47.83-5.29c1.02-6.49,2.58-12.9,4.08-19.1,1.56-6.4,3.03-12.45,4.01-18.63l.67-4.24-4.15-1.09c-1.47-.38-2.69-1.06-3.44-1.91-14.35-16.21-43.21-21.09-71.12-25.8l-2.94-.5c-36.54-6.2-59.71-16.02-70.83-30.03l-7.32-9.21-1.11,11.71c-1.51,16.02-3.77,32.05-6.7,47.63-.11.59-.55,1.11-.9,1.45l-3.55,3.4,3.53,3.42c.13.13.25.25.33.36,4.78,5.88,10.51,12.79,16.68,19.49l11.4,12.37M553.67,443.98l5.01-1.77c9.23-3.26,18.07-7.07,26.26-11.33,1.27-.66,2.79-1.01,4.4-1.01,2.42,0,4.69.81,5.94,2.11.6.62.85,1.24.76,1.82-.14.86-.99,1.76-2.26,2.43-8.68,4.51-18.03,8.56-27.8,12.03l-15.05,5.36,15.54,3.71c9.24,2.21,18.87,3.65,28.63,4.3l1.64.11,1.35-.93c.48-.33.97-.6,1.51-.81,17.69-7.17,33.73-19.23,45.16-33.96l1.48-1.9-.67-2.31c-.07-.25-.09-.49-.07-.74.15-1.28,1.65-2.62,3.75-3.34l1.66-.57.89-1.51c4.45-7.58,7.65-15.46,9.52-23.42l1.54-6.56-6.69.77c-11.85,1.36-23.91,2.05-35.85,2.05s-25.04-.76-37.22-2.26c-5.14-.63-10.36-1.42-15.5-2.33l-3.31-.59-1.65,2.93c-4.32,7.68-10.16,14.7-17.37,20.87l-2.63,2.25,1.35,3.19c3.65,8.64,6.52,17.47,8.51,26.23l1.18,5.19M407.36,464.34l-1.4-8.28c-.42-2.51-.7-4.95-.83-7.26v-.08c0-.09,0-.19-.01-.28l-.21-4.06-4.04-.41c-.08,0-.16-.01-.28-.02-.43-.05-.85-.14-1.27-.24-19.14-4.9-37.16-12.93-52.1-23.21l-3.58-2.46-2.76,3.35c-5.55,6.73-13.4,12.53-22.72,16.77l-11.26,5.12,11.8,3.7c2.6.82,5.07,1.49,7.55,2.06,9.01,2.07,18.48,2.89,28.53,3.77h.06c6.7.59,13.62,1.2,20.47,2.21,9.02,1.33,17.17,3.42,24.24,6.22l7.81,3.09M502.95,609.29l2.41-10.64c1.29-5.71,2.86-11.5,4.67-17.23l.78-2.49-1.69-1.99c-1.06-1.25-.58-2.15-.05-2.8.53-.64,1.34-1.2,2.34-1.62l1.9-.79.72-1.92c3.11-8.26,6.77-16.51,10.87-24.53l2.3-4.49-4.63-2.01c-5.91-2.57-11.12-5.24-15.49-7.94l-3.65-2.26-2.61,3.4c-3.22,4.21-8.28,7.74-14.62,10.22-4.88,1.91-10.07,3-15.4,3.26l-7.8.38,3.94,6.74c10.33,17.69,20.1,33.28,29.87,47.68l6.12,9.03M307.02,594.3c-.19,0-.37,0-.55-.01l-4.57-.22-.38,4.56c-.22,2.7-.49,5.41-.76,8.19-.7,7.09-1.35,13.78-1.36,20.61,0,9.49,1.89,27.35,14.66,40.31l4.67,4.74,2.95-5.96c7.12-14.39,7.98-30.06,2.43-44.11-.13-.34-.24-.8.11-1.45.5-.92,1.88-2.09,4.26-2.6.72-.15,1.46-.23,2.2-.23,3.36,0,5.98,1.56,6.58,3.08,6.84,17.32,4.34,37.07-6.85,54.19l-1.21,1.85.64,2.11c.12.39.19,1-.53,1.85-.75.89-2.03,1.59-3.61,1.97l-1.42.35-.98,1.08c-2.74,3.04-5.8,5.94-9.09,8.63l-5.38,4.39,6.05,3.41c16.1,9.06,30.58,16.09,44.29,21.5l1.14.45,1.22-.16c.47-.06.95-.09,1.43-.09,2.43,0,4.72.81,5.98,2.11.12.12.24.27.38.48l.9,1.29,1.49.5c2.18.73,4.16,1.36,6.05,1.94l10.38,3.15-4.74-9.75c-10.85-22.32-17.18-45.45-18.8-68.72-.03-.51.19-1.03.67-1.57.89-.99,2.84-2.09,5.61-2.2.14,0,.28,0,.41,0,3.99,0,6.58,2.09,6.69,3.58,1.88,27.04,10.51,54.61,24.96,79.71l1.14,1.98,2.26.34c4.26.64,8.44,1.13,12.45,1.45,5.02.4,10.35.61,15.83.61,20.6,0,41.96-2.88,60.36-5.57l.64-.09.59-.26c4.2-1.85,8.55-3.56,12.93-5.07l9.22-3.19-8.21-5.27-19.42-12.46-.39-.25-.43-.17c-20.18-7.97-42.85-12.83-65.57-14.06-2.76-.15-4.66-1.27-5.51-2.26-.45-.53-.66-1.05-.61-1.55.17-1.67,3.05-3.53,6.67-3.53.2,0,.39,0,.59.02,5.53.3,11.24.82,16.99,1.54l20.77,2.62-17.62-11.3-7.81-5.01c-1.06-.68-1.69-1.5-1.74-2.27-.06-.86.68-1.63,1.13-2,1.31-1.11,3.39-1.77,5.56-1.77,1.87,0,3.63.47,4.96,1.32l50.99,32.72.35.23.39.16.13.05c.85.35,1.55.79,2.08,1.33l.36.36.43.27,35.49,22.78,1.41.91,1.67-.18c12.98-1.43,24.35-2.13,34.76-2.13,3.15,0,6.28.06,9.29.19l15.11.64-12.05-9.14c-21.58-16.37-41.33-34.74-60.38-56.14l-1.12-1.25-1.66-.27c-14.81-2.42-29.68-3.34-45.43-4.3-12.12-.74-24.65-1.51-37.03-3.03-2.87-.35-5.68-.74-8.35-1.15-38.4-5.92-66.82-21.45-76.03-41.52-.24-.52-.23-.99.02-1.5.44-.91,1.73-2.08,4.04-2.66.82-.2,1.67-.31,2.54-.31,3.4,0,5.94,1.55,6.61,3.01,6.68,14.57,24.75,26.19,50.87,32.71l4.81,1.2.98-4.86c2.85-14.13.3-29.08-7.19-42.09-.32-.55-.37-1.03-.16-1.56.33-.85,1.45-2,3.57-2.66.97-.3,2.01-.46,3.07-.46,2.88,0,5.56,1.15,6.5,2.8,8.22,14.29,10.85,30.63,7.38,45.99l-1.15,5.1,5.19.64c11.82,1.45,23.94,2.2,35.65,2.91,9.87.6,18.1,1.13,26.68,1.93l11.13,1.04-7-8.72c-3.23-4.02-6.47-8.19-9.64-12.38-12.83-16.98-25.44-35.7-38.56-57.25l-1.38-2.26h-2.65c-11.67-.07-23.38-.81-34.81-2.22-14.18-1.74-28.22-4.53-41.73-8.29l-2.46-.69-1.92,1.68c-18.28,15.99-42.1,28.19-68.88,35.28-.84.22-1.73.34-2.65.34M152.91,632.53c-10.63,0-21.42-.5-32.09-1.49l-9.15-.85,4.62,7.94c3.36,5.78,9.93,11.21,17.57,14.53,13.28,5.77,29.75,7.13,45.58,7.73,7.44.28,15.02.43,22.55.43,5.07,0,10.22-.07,15.32-.19l14.38-.36-11.78-8.25c-12.06-8.45-22.7-16.42-32.54-24.38l-4.38-3.54-2.74,4.92c-.7,1.26-2.77,2.62-5.81,2.81-7.08.46-14.32.69-21.54.69M306.77,735.4c10.63,0,20.93-1.25,30.63-3.72l13.09-3.33-12.3-5.57c-5.1-2.31-10.34-4.84-15.6-7.52l-1.57-.8-1.72.42c-.09.02-.18.05-.27.07h-.04c-14.31,3.07-29.15,5.45-44.1,7.06l-25.63,2.77,24.94,6.52c10.42,2.72,21.38,4.11,32.58,4.11M726.79,439.56l3.45,2.29c.56.37,1.88,1.38,1.88,2.64,0,1.94-3.13,4.11-7.34,4.11-1.8,0-4.51.29-7.27,2.83-4.65,4.26-6.9,12.39-5.59,20.21l.59,3.53,3.56.39c6.67.73,12.66,1.34,18.52,1.34,4.3,0,8.04-.33,11.43-1.01,8.07-1.62,16.47-6.45,17.04-13.6.15-1.88,3.18-3.98,7.28-3.98.17,0,.35,0,.52.01,3,.14,5.1,1.35,6.06,2.43.54.61.79,1.23.74,1.83-.74,9.22-12.16,18.1-27.15,21.11-4.82.97-10.02,1.44-15.88,1.44-3.72,0-7.78-.19-12.41-.59l-6.37-.55,1.33,6.25c1.86,8.75.99,14.97-2.81,20.19l-5.96,8.16,10.08-.64c11.15-.71,21.98-1.63,32.19-2.73.39-.04.79-.06,1.18-.06,3.62,0,6.4,1.78,6.73,3.44.04.18.15.74-.43,1.52-.73,1-2.47,2.16-5.15,2.45-27.16,2.93-54.89,4.42-82.44,4.42-5.21,0-10.49-.05-15.68-.16l-3.32-.07-1.19,3.1c-3.07,7.98-7.56,15.58-13.36,22.59l-8.65,10.46,13.28-2.81,2.9-.61c14.94-3.17,30.4-6.46,46.23-6.46,7.81,0,14.88.8,21.62,2.44,2.33.57,3.64,1.75,4.09,2.66.25.52.26.98.03,1.5-.66,1.46-3.19,3.01-6.6,3.01-.85,0-1.69-.1-2.5-.3-5.18-1.26-10.67-1.88-16.77-1.88-13.31,0-27.09,2.93-41.68,6.03-1.94.41-3.92.83-5.89,1.24l-7.12,1.49-5.44.95c-17.31,3.03-35.24,4.57-53.28,4.57-6.08,0-12.21-.18-18.23-.53l-1.52-.09-1.28.81c-3.57,2.25-7.73,4.03-12.34,5.28-4.63,1.26-9.4,1.89-14.17,1.89-.81,0-1.62-.02-2.42-.06l-2.16-.1,6.96-7.39,1.43-.16c.08,0,.16-.02.24-.03l4.39-.55-.32-4.33c0-.07,0-.15,0-.22l-.02-.78.77-.82c1.26-1.33,3.56-2.16,6-2.16.4,0,.8.02,1.2.07.49.05.97.1,1.46.15l.83.08,3.29.34,1.38-2.83c.07-.12.17-.3.26-.51.66-1.46,3.19-3.01,6.6-3.01.85,0,1.69.1,2.5.3,2.66.65,4.07,2.11,4.25,3.19l.66,3.85,3.91.08c2.1.05,4.23.07,6.33.07,12.04,0,24.13-.75,35.96-2.22l5.5-.69-1.54-5.33c-.21-.72.08-1.45.85-2.19,16.82-16.08,25.28-37.02,23.23-57.45-.05-.51.16-1.04.62-1.58.86-1.01,2.77-2.14,5.55-2.29.2-.01.4-.02.6-.02,3.67,0,6.6,1.89,6.77,3.59.49,4.84.39,9.86-.29,14.94l-.71,5.28,5.33.08c3.69.06,7.45.09,11.18.09,7.24,0,14.66-.11,22.04-.32l5.95-.17-1.51-5.76c-.31-1.18.55-2.16,1.32-2.78,8.93-7.14,4.81-20.01,1.49-30.35-.47-1.48-.92-2.88-1.34-4.27-2.62-8.65-1.49-20.83,6.93-28.54,3.67-3.36,8.53-5.61,14.07-6.51l7.6-1.24M270.58,2.37c-6.7,0-15.4,2.38-16.36,7.36-.08-.02-.15-.03-.23-.04-.26-.06-.53-.09-.79-.09-6.13,0-12.45,15.61-6.36,17,1.71.39,3.45.69,5.19.94-.36,6.61-.23,13.26.4,19.92l-26.6-3.27c-.67-.08-1.34-.12-2-.12-5.78,0-10.87,3.07-11.85,7.4-1.09,4.83,3.34,9.39,9.9,10.2l31.71,3.9c.6.07,1.2.1,1.79.11,1.06,4.59,2.32,9.17,3.85,13.73,10.65,31.8,32.04,60.5,61.84,82.99,3.32,2.5,6.82,5.03,10.2,7.48,16.61,12.01,33.73,24.39,36.49,38.64-.41,2.54-.7,5.09-.92,7.66-20.15-11.61-42.51-20.93-64.61-29.17l-19.47-44.68c-1.64-3.76-6.37-6.16-11.47-6.16-1.22,0-2.45.14-3.67.42-6.33,1.49-9.82,6.48-7.79,11.14l12.41,28.49c-.12-.04-.25-.09-.37-.13-1.6-.57-3.3-.83-4.97-.83-4.29,0-8.41,1.77-10.38,4.81-2.74,4.22-.32,9.28,5.41,11.3,6.56,2.31,13.26,4.68,20.01,7.12l1.08,2.48c1.43,3.27,5.19,5.51,9.5,6.04.65.08,1.31.12,1.97.12,1.22,0,2.45-.14,3.67-.42,1.07-.25,2.06-.61,2.96-1.05,23.61,9.17,46.9,19.74,66.25,33.15,1.54,11.88,4.88,23.56,9.03,35.05,0,.01,0,.03-.01.04-.52,2.5.5,4.91,2.54,6.71.99,2.54,2.01,5.08,3.05,7.6-12.73-5.7-26.02-10.67-39.76-14.9-.21-.56-.49-1.12-.87-1.66l-23.91-34.28c-2.04-2.93-6.07-4.61-10.26-4.61-1.77,0-3.56.3-5.24.93-5.66,2.13-7.89,7.24-4.98,11.4l14.65,21c-4.29.42-8.08,2.61-9.46,5.85-1.9,4.46,1.48,9.22,7.54,10.62,28.63,6.61,55.43,16.57,79.67,29.59,1.06.57,2.21.98,3.39,1.25,8.22,19.22,15.48,37.81,17.42,56.59-14.54-9.28-33.43-14.1-52.23-17.66l-7.52-29.72c-1.03-4.08-5.87-6.92-11.31-6.92-.7,0-1.4.05-2.11.14-6.25.85-10.37,5.27-9.21,9.87l5.65,22.34c-33.63-6.17-52.71-15.59-58.27-28.76-1.53-3.63-6.08-5.96-10.99-5.96-1.13,0-2.28.12-3.41.38-.19.04-.36.1-.54.15,1.94-34.27.5-68.63-4.31-102.78,3.3-3.01,3.65-7.37.46-10.68-.92-.96-1.83-1.92-2.73-2.89-.68-1.65-2.01-3.06-3.76-4.1-10.88-12.14-20.32-24.94-28.24-38.26,4.1-13.4-9.22-24.09-16.21-24.09-2.19,0-3.76,1.05-3.97,3.39-1.13.05-2.26.22-3.37.51-6.25,1.68-9.46,6.76-7.18,11.36,1.71,3.45,3.52,6.86,5.42,10.25-.6,1.59-1.23,3.17-1.93,4.74-2.07,4.65,1.38,9.65,7.69,11.18.59.14,1.19.25,1.79.32.64.08,1.29.11,1.92.11.18,0,.35,0,.52,0,7.5,11.27,16.05,22.15,25.59,32.56,8.45,54.36,8.15,109.31-.95,163.59-14.9-4.36-29.77-8.86-44.58-13.5,3.58-13.03,4.55-26.33,2.98-39.44,1.5-.77,2.79-1.81,3.72-3.09,19.9-27.49,23.15-61.39,8.7-90.68-2.69-5.45-5.92-10.69-9.05-15.75-5.79-9.38-11.26-18.23-12.82-27.44-.76-4.48-5.95-7.77-11.94-7.77-.5,0-.99.02-1.5.07-6.6.6-11.28,5.03-10.45,9.88,2.02,11.88,8.51,22.4,14.79,32.57,3.07,4.98,5.98,9.68,8.34,14.47.87,1.77,1.66,3.55,2.38,5.36l-57.27-28.98c-2.09-1.05-4.46-1.56-6.82-1.56-3.83,0-7.59,1.34-9.92,3.84-3.77,4.03-2.38,9.55,3.1,12.32l64.26,32.52c1.5.76,3.15,1.23,4.83,1.44.65.08,1.31.12,1.97.12,1.57,0,3.12-.22,4.57-.66,1.22,11.48-.38,23.14-4.71,34.19-3.21-7.57-7.31-14.96-12.29-22.07-2.04-2.92-6.07-4.59-10.25-4.59-1.77,0-3.57.3-5.26.94-5.65,2.14-7.87,7.25-4.96,11.41,16.12,23.01,21.8,50.44,15.92,76.01-15.31-4.95-30.55-10.04-45.68-15.26-1.23-2.27-3.71-4.16-7.08-5.06-1.35-.36-2.72-.53-4.08-.53-1.25,0-2.49.15-3.66.42-4.19-1.48-8.38-2.94-12.55-4.44,8.66-19.04,11.09-39.51,6.99-59.37-.91-4.39-6.04-7.54-11.89-7.54-.6,0-1.21.03-1.82.1-6.57.73-11.09,5.25-10.09,10.08,3.36,16.29,1.62,33.06-5,48.78-.16-.06-.32-.11-.47-.17-1.66-.61-3.43-.91-5.16-.91-4.21,0-8.27,1.71-10.29,4.67-2.85,4.18-.56,9.27,5.12,11.37,10.24,3.79,20.56,7.5,30.91,11.17-7.29,6.48-18.34,10.87-29.62,11.23-6.64.21-11.79,4.34-11.5,9.23.25,4.26,4.55,7.68,10.04,8.36.65.08,1.31.12,1.99.12.18,0,.35,0,.53,0,20.24-.64,39.44-8.94,50.77-21.18,38.8,13.34,78.28,25.83,117.97,37.3-1.61,2.48-1.56,5.48.5,8.01,13.83,17,28.75,34.03,47.6,46.92.01.31.04.62.1.94.7,3.77,4.67,6.61,9.51,7.21.62.08,1.25.11,1.89.11.52,0,1.05-.03,1.57-.08.16-.02.31-.04.47-.06.92.48,1.86.94,2.81,1.4-12.07,3.24-24.98,4.58-38.38,4.58-3.18,0-6.39-.08-9.63-.22,1.31-13.88-2.74-27.92-11.77-40.22-2.08-2.84-6.05-4.45-10.14-4.45-1.85,0-3.72.33-5.45,1.02-5.59,2.22-7.68,7.36-4.66,11.48,6.78,9.24,9.92,19.75,9.14,30.18-18.09-2.26-36.58-5.99-54.79-9.95-1.09-.24-2.19-.35-3.27-.35-4.96,0-9.55,2.39-11.03,6.07-1.8,4.48,1.68,9.2,7.78,10.52,19.37,4.22,39.09,8.18,58.61,10.58,11.93,1.47,23.79,2.35,35.44,2.35,22.45,0,44.15-3.27,64.21-11.94.24-.1.47-.22.69-.34,10.43,2.31,20.95,3.24,31.13,4.13,6.63.58,12.89,1.13,19.01,2.03,9.61,1.42,26.7,5.22,33.25,14.77,1.37,1.99,3.66,3.4,6.3,4.12,3.04,6.44,6.38,12.64,9.58,18.56,2.04,3.78,4.11,7.59,6.19,11.41-17.17-5.35-34.76-9.88-52.68-13.56-1.92-1.01-4.24-1.58-6.68-1.58-.36,0-.73.01-1.1.04-16.92-3.22-34.11-5.7-51.47-7.4-.51-.05-1.03-.07-1.53-.07-5.68,0-10.62,3.1-11.39,7.35-.83,4.64,3.61,8.88,9.9,9.51.27.03.55.06.82.09-17.45,3.37-34.81,6.99-51.95,10.84-2.82.63-5.06,2-6.48,3.72-.11,0-.21,0-.32,0-.39,0-.77.02-1.16.04-3.41-6.32-4.64-13.28-3.27-20.01.94-4.63-3.37-8.95-9.68-9.63-.58-.06-1.15-.09-1.72-.09-5.6,0-10.51,3.01-11.36,7.21-3.43,16.89,4.49,34.78,20.69,47,.84,2.62,1.65,5.25,2.44,7.89-1.44.12-2.89.18-4.35.18-10.64,0-21.45-3.17-28.79-8.77-2.26-1.72-5.27-2.59-8.28-2.59-2.88,0-5.76.79-7.99,2.38-4.57,3.25-4.7,8.61-.28,11.98,9.31,7.1,21.74,11.71,34.86,13.32,3.43.42,6.91.64,10.38.64,3.02,0,6.05-.16,9.05-.49,1.66,6.54,3.15,13.1,4.48,19.66-.32-.02-.63-.03-.95-.03-5.52,0-10.39,2.93-11.33,7.07-1.04,4.61,3.19,8.98,9.46,9.75l7.1.87c1.73,2.07,4.59,3.54,7.89,3.94.62.08,1.25.11,1.89.11.46,0,.93-.02,1.39-.06,2.28-.2,4.31-.89,5.96-1.89l1.62.2c-.4,4.62-.71,9.3-.71,13.99-.01,22.52,8.87,41.2,24.75,52.95-2.08,2.12-4.33,4.13-6.76,6.04-3.36-2.02-6.69-4.06-10-6.1-7.2-4.44-14.48-8.98-21.76-13.61,1.46-1.63,2.18-3.63,1.82-5.72-.73-4.28-5.69-7.42-11.41-7.42-.48,0-.96.02-1.44.07-2.67.25-5.34.46-8.01.67-1.45-.97-2.9-1.93-4.34-2.91.27-1.75-.17-3.57-1.46-5.21l-17.97-22.85c-2.13-2.71-6-4.23-9.98-4.23-1.96,0-3.94.37-5.75,1.14-1.63.7-2.94,1.64-3.9,2.74-24.79-19.66-46.88-41.12-62.81-64.84,17.6-12.58,26.15-31.42,22.31-49.27-.9-4.17-5.79-7.15-11.36-7.15-.6,0-1.2.03-1.81.1-6.28.73-10.56,5.06-9.57,9.68,2.18,10.13-1.6,21.07-9.77,29.46-2.75-5.31-5.2-10.73-7.26-16.26-1.4-3.74-6-6.19-11.03-6.19-1,0-2.02.1-3.03.3-6.09,1.23-9.67,5.86-7.99,10.34,5.2,13.9,12.42,27.07,21.16,39.6-16.49-2.57-33.31-4.18-50.18-4.81.1-2.29-1.05-4.6-3.46-6.33-15.97-11.46-27.93-25.8-34.6-41.47-1.54-3.62-6.09-5.95-10.99-5.95-1.14,0-2.29.12-3.44.39-6.07,1.4-9.44,6.15-7.54,10.61,6.69,15.72,17.94,30.28,32.79,42.58-11.48.29-22.93,1.04-34.25,2.25-6.29.67-10.64,4.97-9.72,9.6.74,3.74,4.69,6.54,9.5,7.13.62.08,1.25.11,1.88.11.55,0,1.11-.03,1.67-.09,13.87-1.49,27.95-2.23,42.03-2.23,27.37,0,54.81,2.79,81.01,8.3.4.08.8.15,1.21.2,9.36,10.73,19.78,20.96,30.93,30.75-6.01.35-12.07.52-18.13.52-12.67,0-25.39-.76-37.92-2.26-1.48-.91-3.28-1.56-5.31-1.83-.06,0-.12-.02-.18-.02-.64-.08-1.28-.12-1.9-.12-1.27,0-2.51.16-3.67.45-7.78-1.22-15.47-2.72-22.99-4.5-1.18-.28-2.37-.41-3.54-.41-4.86,0-9.38,2.28-10.95,5.87-1.95,4.45,1.37,9.22,7.42,10.66,7.25,1.72,14.63,3.2,22.11,4.44,2,11.8,12.52,23.42,28.39,30.32,9.94,4.32,20.71,6.67,31.63,8.01,7.59.93,15.26,1.38,22.76,1.67,7.83.3,15.69.45,23.56.45,12.94,0,25.89-.4,38.78-1.2,11.28,7.37,22.62,14.48,33.79,21.36,7.28,4.49,14.68,8.97,22.21,13.33-17.51,2.98-35.29,4.82-53.12,5.53-2.06-1.17-4.54-1.76-7.01-1.76-2.7,0-5.4.7-7.57,2.09-.79,0-1.58,0-2.36,0-41.58,0-83.08-6.09-121.75-18.17-1.47-.46-2.99-.67-4.49-.67-4.48,0-8.74,1.94-10.6,5.16-2.48,4.31.25,9.28,6.11,11.11,24.29,7.58,49.61,12.97,75.39,16.14,18.28,2.25,36.79,3.37,55.31,3.37,2.87,0,5.73-.03,8.59-.08,14.5,8.83,32.46,14.76,51.98,17.16,3.23.4,6.49.7,9.8.9,3.28.2,6.55.3,9.79.3,19.6,0,38.47-3.6,54.64-10.42,9.46,3.26,19.2,6,29.24,8.08,1.67,2.56,4.88,4.23,8.44,4.67.62.08,1.25.11,1.88.11,1.61,0,3.25-.25,4.81-.79.87-.3,1.66-.68,2.38-1.1,2.8.34,5.63.63,8.48.86,6,.48,11.99.7,17.98.7,8.18,0,16.34-.4,24.47-1.06-2.21,1.81-4.35,3.67-6.4,5.59-3.9,3.65-3.03,8.94,1.93,11.81,1.56.9,3.34,1.46,5.17,1.68.63.08,1.26.11,1.89.11,3.39,0,6.74-1.1,9-3.22,8.95-8.39,19.86-15.63,32.07-21.37,1.9-.28,3.79-.56,5.68-.85,23.25-3.47,45.71-6.83,67.25-6.83,13.64,0,26.91,1.35,39.77,4.86,1.3.36,2.63.52,3.95.52.34,0,.67-.01,1.01-.03.38.03.77.04,1.15.04,3.24,0,6.46-.99,8.73-2.95,4.13-3.55,3.56-8.9-1.27-11.94-1.31-.82-2.61-1.65-3.91-2.49,23.83-8.83,44.68-21.89,60.92-37.55,33.54-2.09,64.03-17.71,80.58-39.04,2.15.14,4.31.21,6.47.21,17.02,0,33.81-4.33,47.48-11.75l52.29,6.43c.67.08,1.34.12,2,.12,5.78,0,10.87-3.07,11.85-7.4,1.09-4.83-3.34-9.39-9.9-10.2l-36.37-4.47c3.36-3.86,6.1-8.03,8.03-12.46,2.03-4.66-1.45-9.65-7.78-11.15-1.23-.29-2.47-.43-3.7-.43-5.09,0-9.81,2.39-11.45,6.15-2.39,5.48-6.66,10.43-12.13,14.57h-.03c-.67-.09-1.34-.13-2-.13-5.78,0-10.87,3.07-11.85,7.4-.04.17-.05.34-.08.51-7.11,2.85-15,4.63-22.98,5.03,1.41-3.89,2.39-7.88,2.84-11.93.53-4.66-4.19-8.76-10.52-9.14-.33-.02-.65-.03-.97-.03-5.92,0-10.95,3.34-11.45,7.76-2.47,21.95-24.99,42.03-53.05,49.83,6.43-9.2,11.39-18.93,14.65-28.96,2.07-.37,4.03-1.13,5.64-2.32,16.7-12.27,29.43-27.45,37.35-43.89.03,0,.05,0,.08,0,1.36,0,2.73-.16,4.08-.51,17.31-4.6,35.39-7.8,53.72-9.54.29,2.74,2.28,5.34,5.71,6.88,29.23,13.18,60.35,24.31,92.5,33.06.73.2,1.47.34,2.21.43.66.08,1.32.12,1.97.12,4.89,0,9.49-2.21,11.29-5.79,2.3-4.59-.88-9.69-7.12-11.38-24.1-6.56-47.59-14.54-70.08-23.76.98-.27,1.9-.63,2.75-1.07,5.26.1,10.52.3,15.76.64.36.02.72.03,1.07.03,6.17,0,11.42-3.47,11.97-8.08.58-4.87-4.32-9.18-10.94-9.6-2.28-.15-4.56-.27-6.85-.37,5.29-6.25,13.29-11.32,22.53-13.87,6.23-1.72,9.38-6.82,7.04-11.4-.08-.15-.17-.29-.26-.43,52.38,19.13,107.85,33.04,165.53,41.47.12.02.25.03.37.05.67.08,1.33.12,1.99.12,5.63,0,10.65-2.92,11.79-7.13,1.29-4.8-2.95-9.46-9.47-10.42-41.88-6.12-82.55-15.26-121.66-27.27,3.25-2.06,6.31-4.28,9.15-6.65,11.67,3.16,23.76,5.52,36.04,7.03,10.77,1.32,21.69,2,32.59,2,1.75,0,3.49-.02,5.23-.05,6.65-.13,11.89-4.2,11.7-9.09-.18-4.81-5.54-8.62-12.03-8.62-.11,0-.22,0-.34,0-1.52.03-3.05.05-4.57.05-18.5,0-37.07-2.22-54.67-6.49,4.17-6.08,7.18-12.59,8.78-19.29,1.15-4.82-3.23-9.41-9.77-10.26-.04,0-.07,0-.11-.01-.67-.08-1.34-.12-2-.12-5.73,0-10.81,3.02-11.84,7.32-1.42,5.96-4.34,11.73-8.45,16.99-3.87.46-7.35,2.29-9.07,5.12-.96,1.57-1.23,3.23-.93,4.82-2.42,1.89-5.01,3.65-7.79,5.25-2.19,1.26-3.61,2.97-4.24,4.81-15.69-5.34-31.09-11.18-46.2-17.47,2.64-1.33,5.15-2.78,7.53-4.37.05,0,.09,0,.14-.02,21.69-3.45,40.08-14.62,49.85-29.01h0c.81,0,1.63-.05,2.45-.18l72.65-11.05c6.51-.99,10.69-5.68,9.34-10.47-1.18-4.19-6.2-7.07-11.78-7.07-.81,0-1.63.06-2.45.19l-62.93,9.58c.47-4.83-4.42-9.06-11.01-9.47-.34-.02-.68-.03-1.01-.03-6.2,0-11.46,3.5-11.98,8.12-1.38,12.27-12.51,23.67-27.42,29.23-1.99-.92-4.22-1.37-6.43-1.37-3.71,0-7.36,1.25-9.71,3.63-9.02,9.09-24.5,14.16-39.8,14.16-6.85,0-13.67-1.02-19.85-3.14,1.04-8.43,3.4-16.72,7.01-24.7,32.28-5.77,62.63-17.04,88.08-32.76,5.09-3.15,5.75-8.73,1.47-12.48-2.38-2.09-5.8-3.16-9.23-3.16-2.73,0-5.48.68-7.73,2.07,0,0,0,0,0,0,3.2-20.49-8.4-42.39-30.99-54.8-2.16-1.19-4.69-1.76-7.2-1.76-3.67,0-7.29,1.23-9.65,3.56-3.98,3.92-2.88,9.47,2.45,12.4,20.09,11.03,27.72,32.83,17.38,49.63-1.14,1.84-1.33,3.82-.75,5.66-9.74,4.06-19.97,7.49-30.53,10.25,1.97-2.44,4.05-4.83,6.28-7.15,3.83-4,2.54-9.52-2.9-12.35-2.11-1.1-4.53-1.62-6.94-1.62-3.78,0-7.5,1.31-9.84,3.75-1.13,1.18-2.23,2.37-3.3,3.57-1.88-7.13-4.64-14.26-9.05-21.06-2.87-4.43-6.36-8.46-10.33-12.04.03-.25.06-.5.07-.76.48-24.34-6.94-48.77-21.45-70.65-2.09-3.15-6.37-4.98-10.83-4.98-1.77,0-3.57.29-5.27.9-5.97,2.14-8.45,7.45-5.54,11.85,10.25,15.45,16.49,32.33,18.39,49.46-6.04-1.99-12.39-3.2-18.87-3.5-.26-.01-.52-.02-.78-.02-6.3,0-11.59,3.6-12,8.3-.42,4.88,4.62,9.09,11.26,9.4,13.06.61,26.26,8.33,33.61,19.66,7.48,11.52,9.18,25.17,10.83,38.36.14,1.12.57,2.17,1.21,3.13-4.74,10.04-7.79,20.52-8.99,31.19-2.49,22.11,2.88,43.65,8.07,64.48.36,1.45,1.19,2.75,2.34,3.84-11.61,1.53-23.08,3.6-34.31,6.18,1.85-7.99,2.57-16.11,2.08-24.19-.29-4.76-5.62-8.47-12.03-8.47-.18,0-.35,0-.53,0-6.64.21-11.79,4.35-11.49,9.24,1.41,23.4-9.16,47.18-28.7,65.69-1.67-.96-3.7-1.6-5.95-1.76-.38-.03-.76-.04-1.14-.04-5.85,0-10.85,3.27-11.43,7.64-.33,2.52-.8,5.02-1.38,7.51-4.81-8-10.57-15.69-17.31-22.97-2.23-2.4-5.84-3.7-9.52-3.7-2.23,0-4.49.48-6.47,1.47-5.25,2.63-6.6,7.9-3.02,11.77,10.67,11.51,18.65,24.15,23.73,37.57.33.87.84,1.66,1.47,2.38-15.69,25.6-44.25,47.06-79.31,58.13-7.55-5.53-14.93-11.35-22.14-17.49.67-.75,1.2-1.58,1.53-2.49,4.29-11.94,7.71-24.04,10.24-36.24.12,0,.24.01.36.01l55.87-.02c6.32,0,11.43-3.77,11.42-8.42,0-4.65-5.13-8.41-11.45-8.41h-5.73c-1.12-5.48-2.75-10.89-4.88-16.19,1.92-1.88,2.78-4.32,2.08-6.8-2.9-10.28-.75-21.51,5.89-30.8,2.96-4.14.79-9.26-4.84-11.44-.46-.18-.93-.32-1.41-.45,1.98-.41,3.96-.83,5.91-1.24,14.22-3.02,27.9-5.92,40.7-5.92,5.38,0,10.6.51,15.65,1.74,1.2.29,2.42.43,3.62.43,4.83,0,9.32-2.25,10.92-5.81,2-4.44-1.28-9.23-7.32-10.7-7.55-1.84-15.17-2.58-22.74-2.58-16.34,0-32.46,3.42-47.23,6.56-.97.21-1.93.41-2.88.61,6.15-7.44,10.91-15.51,14.14-23.91,5.25.11,10.51.16,15.78.16,27.74,0,55.55-1.49,82.95-4.44,6.29-.68,10.64-4.98,9.71-9.61-.84-4.21-5.76-7.24-11.38-7.24-.56,0-1.12.03-1.69.09-10.6,1.14-21.28,2.03-31.98,2.72,5.43-7.43,5.34-15.87,3.62-23.96,4.1.35,8.41.61,12.82.61,5.53,0,11.2-.41,16.81-1.53,17.3-3.47,30.02-13.91,30.94-25.37.39-4.88-4.67-9.07-11.31-9.37-.24-.01-.49-.02-.73-.02-6.32,0-11.62,3.63-12,8.33-.35,4.41-7.09,8.1-13.25,9.34-3.31.66-6.85.92-10.5.92-5.83,0-11.97-.65-18-1.31-1.02-6.09.6-12.72,4.12-15.94,1.43-1.31,2.67-1.58,4.07-1.58h.05c6.64,0,12.02-3.95,12.03-8.84,0-2.62-1.54-4.97-4-6.6.64.08,1.28.11,1.91.11,5.73,0,10.81-3.01,11.84-7.31,1.16-4.82-3.21-9.42-9.76-10.27-20.99-2.74-42.31-4.95-63.6-6.61,3.67-7.38,6.35-15.06,7.86-22.86.24-1.23.12-2.43-.3-3.56,17.73-3.47,34.9-8.47,50.99-14.97,5.83-2.35,7.96-7.74,4.75-12.03-2.19-2.94-6.32-4.6-10.57-4.6-1.96,0-3.94.35-5.78,1.09-2.8,1.13-5.63,2.21-8.5,3.24,9.81-15.5,13.22-33.24,9.33-50.09-1-4.32-6.09-7.38-11.86-7.38-.67,0-1.35.04-2.03.13-6.55.82-10.97,5.39-9.85,10.21.13.55.22,1.1.33,1.65-3.89-5.79-8.18-11.45-12.85-16.93l28.18-17.7c5.06-3.18,5.65-8.77,1.34-12.49-2.38-2.05-5.76-3.11-9.17-3.11-2.76,0-5.54.7-7.81,2.12l-26.35,16.55c-4.48-4.31-9.19-8.48-14.14-12.47-2.38-1.91-5.63-2.89-8.9-2.89-2.9,0-5.8.76-8.11,2.32-4.91,3.3-5.25,8.9-.77,12.52,21.69,17.48,38.58,38.57,48.84,60.99.87,1.9,2.54,3.43,4.64,4.48-2.14,4.15-4.81,8.15-8.03,11.9-2.25,2.62-2.4,5.78-.78,8.4-20.43,4.75-41.87,7.17-63.29,7.17-13.89,0-27.78-1.02-41.39-3.08,14.13-8.38,30.55-14.82,47.86-18.75,6.07-1.38,9.48-6.12,7.6-10.59-1.53-3.64-6.08-5.98-11-5.98-1.12,0-2.26.12-3.39.38-3.47.79-6.9,1.67-10.3,2.63,1.12-24.87,3.72-49.97,7.77-74.66.8-4.86-3.92-9.26-10.51-9.86-.49-.04-.98-.07-1.46-.07-6,0-11.19,3.3-11.93,7.79-4.25,25.9-6.95,52.27-8.03,78.35-.09,2.2.92,4.23,2.65,5.82-4.44,1.81-8.76,3.78-12.95,5.88-.13-2.18-.37-4.35-.75-6.52-.75-4.27-5.7-7.39-11.41-7.4-.49,0-.98.02-1.48.07-6.3.59-10.76,4.84-9.95,9.48,2.57,14.69-2.27,30.02-12.89,42.63-5.31-9.25-11.5-18.21-18.56-26.74-2.17-2.62-5.96-4.07-9.85-4.07-2.04,0-4.1.4-5.97,1.24-5.43,2.43-7.15,7.64-3.84,11.64,8.89,10.75,16.32,22.24,22.14,34.16-.72,2.65.29,5.5,3.05,7.58.17.13.37.23.55.35,3.93,9.31,6.88,18.83,8.79,28.42-4.71,1.14-9.47,2.13-14.28,2.97-1.51-4.81-3.22-10.26-8.22-15.09-3.78-3.65-8.45-5.98-12.58-8.04-.81-.41-1.62-.81-2.42-1.22-14.08-7.3-24.37-18.64-28.24-31.12-1.21-3.9-5.93-6.55-11.14-6.55-.84,0-1.69.07-2.55.21-6.16,1.03-10.01,5.54-8.6,10.07,5.11,16.48,18.74,31.48,37.37,41.14.91.47,1.84.94,2.77,1.4,2.93,1.46,5.7,2.84,7.21,4.3,2.02,1.95,3.04,5.22,4.13,8.68l.36,1.15c6.95,21.83,20.56,42.62,39.36,60.14.2.19.42.37.64.54-3.33,4.75-6.48,9.56-9.45,14.45-10.56-4.92-24.43-13.14-21.49-21.34,1.62-4.52-2.05-9.16-8.19-10.35-.99-.19-1.98-.28-2.95-.28-5.1,0-9.75,2.51-11.11,6.31-1.84,5.14-2.02,11.48,2.38,18.42-1.02,1.01-1.76,2.19-2.1,3.52-.81,3.23-4.15,6.27-8.93,8.13-2.84,1.11-5.86,1.67-8.7,1.67-1.94,0-3.8-.26-5.46-.8-.78-.25-1.58-.43-2.38-.55-6.4-11.37-12.57-22.69-18.6-33.84-.23-.43-.46-.86-.69-1.29,27.11-9.79,44.02-32.77,39.75-54.89-.82-4.23-5.75-7.28-11.39-7.28-.54,0-1.08.03-1.63.08-6.29.66-10.67,4.94-9.77,9.57,2.76,14.27-8.09,29.59-25.18,36.57-5.01-10.54-9.08-21.59-9.7-32.56-.63-11.02,2.05-22.04,4.89-33.71,2.06-8.45,4.18-17.19,5.01-26.1,1.17-12.63-.29-25.03-3.26-37.23.12,0,.23,0,.35-.02,4.06-.42,8.15-.63,12.24-.63,10.92,0,21.81,1.5,32.02,4.44,1.38.4,2.8.59,4.19.59,4.6,0,8.94-2.04,10.72-5.38.93-1.76,1-3.6.38-5.29,27.74-6.11,54.13-14.98,78.69-26.47,5.36-2.51,6.95-7.74,3.53-11.69-2.19-2.54-5.92-3.93-9.73-3.93-2.11,0-4.25.43-6.16,1.32-4.9,2.29-9.89,4.47-14.94,6.53l-1.68-40.42c-.41-9.79,2.19-11.9,3.32-12.36,5.84-2.34,7.99-7.72,4.81-12.02-2.19-2.95-6.32-4.63-10.59-4.63-1.94,0-3.92.35-5.74,1.08-16.77,6.72-16.11,22.51-15.86,28.45l2.02,48.59c-17.67,5.75-36.09,10.21-55.11,13.31-1.81.3-3.42.9-4.77,1.71-5.03-.51-10.1-.76-15.18-.76s-10.27.26-15.38.79c-.69.07-1.35.19-1.98.35-.89-2.59-1.82-5.16-2.79-7.73,10.69-2.17,19.98-7.96,23.98-15.72,2.25-4.37-.74-9.26-6.68-10.93-1.34-.38-2.73-.55-4.08-.55-4.64,0-9.02,2.08-10.76,5.46-1.39,2.69-5.07,4.83-9.01,5.51-1.56-3.68-3.14-7.34-4.72-10.99-2.28-5.27-4.53-10.47-6.67-15.64,11.67-.36,23.28-2.25,34.15-5.49l43.44,33.89c1.79,1.4,4.08,2.25,6.47,2.54.63.08,1.27.12,1.91.12,2.83,0,5.67-.76,7.89-2.31,4.62-3.21,4.83-8.57.47-11.97l-39.31-30.67c5.93-3.11,11.39-6.69,16.2-10.7,4.2-3.51,3.75-8.86-1.02-11.95-2.19-1.42-4.9-2.12-7.61-2.12-2.49,0-4.97.59-7.02,1.75-1.14-4.35-3.16-8.59-5.62-12.73,26.99-2.45,22.98-17.18-3.44-17.18-2.56,0-5.33.14-8.3.44-4.13-5.57-8.16-11.24-10.63-16.76,2.66-.73,5.3-1.4,7.88-2.06,18.23-4.67,37.08-9.5,43.13-28.08,1.48-4.55-2.33-9.12-8.51-10.21-.91-.16-1.82-.24-2.71-.24-5.2,0-9.9,2.61-11.16,6.49-1.11,3.41-2.89,5.88-5.58,7.86,3.37-8.32,5.24-17,5.5-25.61.15-4.89-5.12-8.95-11.77-9.06-.09,0-.19,0-.28,0-6.52,0-11.88,3.83-12.02,8.66-.31,10.23-3.42,20.6-8.99,29.98-1.1,1.84-1.26,3.81-.66,5.63-.59.15-1.17.3-1.76.46-.03,0-.05,0-.08-.01-.67-.08-1.36-.12-2.04-.12-2.93,0-5.91.76-8.53,2.24-4.34,2.45-8.12,7.19-6.8,12.28,2.21,8.55,7.34,16.44,12.87,24.03-1.56,1.78-2.28,3.96-1.78,6.21.85,3.85,4.95,6.72,9.91,7.33.59.07,1.2.11,1.82.12,6.58,9.67,9.59,16.98,5.96,23.92-11.04,4.17-23.45,6.45-35.81,6.45-.9,0-1.79-.01-2.69-.04-1.92-5.46-3.61-10.91-4.96-16.35,1.25-.34,2.45-.84,3.52-1.52,4.81-3.05,5.35-8.4,1.2-11.94-2.56-2.19-5.22-4.3-7.94-6.36-.18-2.65-.28-5.31-.24-7.97.03-1.99.16-3.97.33-5.94.81-1.12,1.3-2.4,1.34-3.76.05-1.64-.02-3.25-.2-4.82,7.7-42.58,44.16-81.83,74.06-114.01,3.59-3.86,2.24-9.13-3.01-11.77-1.99-1-4.25-1.48-6.49-1.48-3.67,0-7.28,1.29-9.5,3.69-9.37,10.08-19.35,20.83-28.97,32.18-4.72-8.39-11.45-16.15-19.75-22.86.54-.69.96-1.45,1.24-2.26,3.06-8.98,12.15-16.83,23.72-20.49,6.11-1.93,8.93-7.14,6.31-11.64-1.96-3.36-6.4-5.37-11.07-5.37-1.58,0-3.19.23-4.74.72-15.79,4.99-28.64,14.92-35,26.67-5.27-2.57-10.86-4.8-16.73-6.61-1.45-.45-2.96-.66-4.45-.66-4.5,0-8.77,1.95-10.61,5.2-2.46,4.31.31,9.28,6.17,11.09,25.42,7.84,44.82,26.37,48.85,46.43-10.09,13.7-18.97,28.13-25.2,43.24-8.2-8.41-18.59-15.92-28.37-22.99-3.45-2.49-6.7-4.85-9.85-7.22-10.14-7.65-19.2-16.1-27.08-25.21,2.55-.22,5.12-.32,7.69-.32,4.79,0,9.57.38,14.2,1.15.86.14,1.71.21,2.55.21,5.26,0,10-2.68,11.2-6.61,1.39-4.56-2.51-9.1-8.71-10.12-6.39-1.06-12.89-1.58-19.37-1.58-6.55,0-13.09.54-19.5,1.61-3.14-4.7-6-9.54-8.55-14.49,13.13-6,22.84-14.55,30.16-24.57,1.33.22,2.67.42,4.01.59,4.04.5,8.14.74,12.23.74,29.37,0,58.78-12.45,71.43-32.3,2.7-4.23.22-9.28-5.54-11.27-1.58-.55-3.25-.8-4.88-.8-4.32,0-8.46,1.8-10.42,4.87-8.76,13.75-29.91,22.56-50.57,22.56-2.33,0-4.65-.11-6.95-.34,4.77-10.28,7.98-21.31,10.42-32.23l25.23-2.8c6.28-.7,10.61-5.01,9.66-9.64-.86-4.2-5.77-7.21-11.37-7.21-.57,0-1.15.03-1.73.1l-33.58,3.73c-5,.56-8.92,3.45-9.66,7.13-5,24.92-13.28,51.36-35.8,64.55-.35-.98-.72-1.95-1.05-2.93-5.24-15.65,2.97-71.47-.47-71.48-.11,0-.23.05-.36.17-.72.61-1.51,1.19-2.35,1.72.56-2.24-3.15-3.4-7.82-3.4h0ZM266.89,405.63c-5.66-6.14-11.09-12.64-16.49-19.27-.22-.27-.46-.52-.71-.77,1.18-1.13,1.99-2.48,2.28-3.99,3-15.97,5.24-32,6.76-48.06,11.86,14.94,36.15,25.38,73.75,31.75l2.94.5c27.1,4.58,55.12,9.31,68.36,24.27,1.43,1.62,3.49,2.75,5.79,3.35-.95,5.98-2.41,11.99-3.94,18.26-1.55,6.38-3.12,12.87-4.16,19.48-24.96-7.14-46.56-20.03-61.17-36.58-2.21-2.5-5.9-3.86-9.67-3.86-2.15,0-4.32.44-6.25,1.36-5.33,2.54-6.85,7.79-3.38,11.71,2.53,2.87,5.26,5.64,8.13,8.31-1.49.71-2.78,1.67-3.73,2.87-6.16,7.85-16.51,13.92-28.21,16.83-1.94-1.22-3.85-2.5-5.72-3.84.93-17.88-3.05-36.09-11.59-52.83-1.73-3.4-6.12-5.5-10.78-5.5-1.34,0-2.71.17-4.04.54-5.95,1.64-8.96,6.52-6.73,10.9,4.03,7.89,6.89,16.17,8.55,24.56h0ZM557.11,437.74c-2.08-9.11-5.02-18.15-8.77-27.02,7.69-6.58,13.89-14.1,18.42-22.15,5.21.93,10.46,1.72,15.75,2.37,12.48,1.53,25.14,2.29,37.8,2.29s24.36-.7,36.39-2.09c-1.79,7.62-4.86,15.07-8.99,22.11-3.78,1.3-6.54,4-6.91,7.28-.1.89-.02,1.76.22,2.59-10.76,13.87-25.8,25.43-43.2,32.47-.9.36-1.7.81-2.41,1.3-9.46-.63-18.83-2.03-27.84-4.18,9.92-3.53,19.44-7.64,28.39-12.29,5.16-2.68,6.38-7.93,2.74-11.73-2.23-2.32-5.77-3.56-9.35-3.56-2.28,0-4.58.5-6.58,1.54-8.08,4.2-16.69,7.9-25.65,11.07h0ZM401.29,456.84c-7.31-2.89-15.79-5.1-25.29-6.5-7.01-1.03-14.03-1.65-20.81-2.24-9.87-.86-19.19-1.68-27.88-3.67-2.46-.56-4.85-1.22-7.19-1.96,9.88-4.5,18.31-10.67,24.41-18.07,15.36,10.56,33.65,18.78,53.61,23.89.63.16,1.27.28,1.9.36.11.01.23.02.34.03,0,.12,0,.25.01.37.15,2.62.46,5.22.89,7.79h0ZM606.39,474.27c10.08,0,20.18-.76,30.14-2.3,6.22-.96,10.2-5.45,8.89-10.03-.91-3.17-4.12-5.55-8.07-6.39,9.77-7.15,18.33-15.53,25.3-24.71,18.62,1.33,37.29,3.1,55.78,5.29-6.41,1.04-12.13,3.68-16.5,7.69-9.94,9.1-11.31,23.34-8.26,33.4.43,1.42.9,2.87,1.37,4.34,3.17,9.88,6.44,20.1.06,25.2-2.69,2.15-3.64,5.01-2.94,7.67-7.3.21-14.6.32-21.9.32-3.71,0-7.41-.03-11.11-.08.71-5.33.85-10.7.31-16.04-.45-4.46-5.51-7.85-11.48-7.85-.28,0-.56,0-.85.02-6.34.34-11.1,4.4-10.63,9.07,1.91,18.97-6.04,38.49-21.79,53.56-2.14,2.05-2.8,4.58-2.13,6.93-11.66,1.45-23.52,2.18-35.37,2.18-2.08,0-4.15-.02-6.23-.07-.53-3.14-3.44-5.94-7.8-7-1.2-.29-2.42-.43-3.62-.43-4.83,0-9.32,2.25-10.92,5.81-.04.08-.09.16-.13.24-.75-.08-1.5-.14-2.25-.23-.58-.06-1.15-.09-1.72-.09-3.83,0-7.33,1.42-9.44,3.65,2.57-6.08,5.41-12.1,8.55-18.03.9-.05,1.8-.17,2.7-.38,25.09-5.9,49.37-13.79,72.19-23.47,5.51-2.33,7.4-7.51,4.22-11.57-2.13-2.72-6-4.24-9.99-4.24-1.95,0-3.92.36-5.73,1.13-16.28,6.9-33.37,12.84-50.98,17.72,3.74-5.62,7.72-11.15,11.97-16.55,3.19-4.04,1.32-9.23-4.18-11.58-1.82-.78-3.8-1.15-5.76-1.15-2.16,0-4.29.45-6.13,1.3-10.31-10.44-18.64-22.03-24.61-34.23,3.23-.58,6.43-1.23,9.62-1.93.3.15.62.29.95.41,13.91,5.38,28.84,9.04,44.17,10.93,8.02.99,16.16,1.48,24.31,1.48h0ZM823.06,562.51c.81-1.5,1.09-3.17.67-4.87-3.44-13.77-6.94-27.88-7.98-41.87,2.66.57,5.35,1.03,8.08,1.36,3.99.49,8.04.73,12.08.73,4.93,0,9.87-.36,14.71-1.06.13.07.26.14.4.2,11.12,4.93,22.41,9.59,33.85,14.02-.56.09-1.11.2-1.66.35-18.68,5.15-33.68,16.52-40.64,30.19-6.51.16-13.02.47-19.51.96h0ZM283.53,596.44l-.75-.09c-3.74-19.84-8.99-39.64-15.62-59.07.1-.02.2-.03.3-.05,32.27-7.23,65.31-13.65,98.26-19.12,18.71,3.76,37.07,8.48,54.91,14.16.88.28,1.78.47,2.68.58.63.08,1.25.11,1.88.11,3.58,0,7.01-1.24,9.2-3.38,4.81,8.68,9.75,17.41,14.84,26.14-31.34-1.35-61.94-8.09-89.18-19.72-1.82-.78-3.81-1.15-5.77-1.15-3.97,0-7.83,1.51-9.96,4.22-3.19,4.05-1.31,9.23,4.19,11.58,3.63,1.55,7.33,3.02,11.06,4.41-14.58,11.53-32.93,20.76-52.8,26.51-.21-5-.83-10.03-2.08-15.07-1.01-4.06-5.83-6.9-11.24-6.9-.68,0-1.38.05-2.07.14-6.21.84-10.32,5.22-9.18,9.79,2.17,8.71,2.06,17.63,1.35,26.91h0ZM500.75,597.61c-10.56-15.57-20.39-31.48-29.7-47.41,5.71-.28,11.47-1.46,16.9-3.58,7.24-2.82,12.96-6.92,16.66-11.75,4.43,2.74,9.74,5.5,16.09,8.26-4.21,8.21-7.91,16.56-11.09,25.02-1.67.69-3.12,1.69-4.18,2.98-2.32,2.82-2.13,6.24.09,8.87-1.84,5.84-3.43,11.71-4.77,17.6h0ZM307.02,599.03c1.28,0,2.59-.15,3.87-.49,27.58-7.3,51.96-19.83,70.79-36.3,13.73,3.82,27.95,6.65,42.43,8.43,11.65,1.43,23.48,2.18,35.36,2.24,11.9,19.54,24.7,38.94,38.83,57.64,3.21,4.25,6.45,8.41,9.72,12.49-9.02-.84-18.01-1.4-26.83-1.94-12.23-.75-23.91-1.48-35.37-2.89,3.73-16.56,1-33.93-7.9-49.39-1.86-3.23-6.12-5.17-10.61-5.17-1.5,0-3.01.22-4.48.67-5.85,1.82-8.59,6.79-6.11,11.1,6.99,12.14,9.28,25.75,6.65,38.79-24.25-6.06-41.65-16.87-47.71-30.09-1.62-3.54-6.11-5.77-10.91-5.77-1.22,0-2.46.14-3.68.45-6.02,1.49-9.26,6.3-7.22,10.73,9.87,21.53,39.63,38.06,79.61,44.23,2.83.44,5.66.82,8.49,1.17,12.52,1.54,25.1,2.31,37.33,3.06,15.65.96,30.45,1.88,44.94,4.25,19.13,21.5,39.38,40.32,61.05,56.76-3.16-.13-6.33-.2-9.49-.2-11.75,0-23.54.86-35.28,2.16l-35.49-22.78c-.94-.94-2.16-1.76-3.64-2.36-.04-.02-.07-.03-.11-.04l-50.99-32.72c-2.17-1.39-4.85-2.07-7.51-2.07-3.19,0-6.36.98-8.62,2.88-4.15,3.5-3.65,8.82,1.11,11.87l7.81,5.01c-5.75-.73-11.53-1.26-17.33-1.57-.28-.02-.57-.02-.85-.02-5.93,0-10.95,3.37-11.39,7.8-.46,4.63,4.26,8.66,10.57,9.01,22.29,1.21,44.39,5.95,64.09,13.73l19.42,12.46c-4.54,1.57-8.98,3.31-13.29,5.21-19.88,2.91-40.08,5.52-59.67,5.52-5.2,0-10.35-.18-15.45-.59-4.09-.33-8.12-.81-12.12-1.41-14.1-24.5-22.5-51.19-24.34-77.68-.31-4.5-5.37-7.99-11.41-7.99-.2,0-.39,0-.59.01-6.31.24-11.16,4.19-10.83,8.83,1.66,23.84,8.26,47.83,19.27,70.46-1.99-.6-3.96-1.24-5.93-1.9-.25-.36-.53-.72-.86-1.07-2.24-2.32-5.79-3.56-9.39-3.56-.69,0-1.38.04-2.06.14-15.1-5.96-29.63-13.3-43.71-21.23,3.51-2.86,6.72-5.92,9.62-9.13,2.44-.6,4.63-1.78,6.1-3.51,1.65-1.95,2.08-4.2,1.45-6.28,11.8-18.05,14.87-39.32,7.29-58.52-1.45-3.68-6.02-6.07-10.98-6.07-1.05,0-2.13.11-3.19.33-6.06,1.29-9.55,5.96-7.79,10.42,5.17,13.1,4.09,27.41-2.27,40.27-11.78-11.96-13.3-29-13.3-36.98,0-6.61.65-13.2,1.34-20.17.27-2.73.54-5.48.77-8.25.26.01.52.02.79.02h0ZM532.94,569.69c.04-.1.08-.2.12-.3,0,.09,0,.19,0,.28-.04,0-.08.01-.12.02h0ZM631.3,574.84c-.53.46-1.01.97-1.42,1.54-3.19,4.47-5.6,9.19-7.25,14.05-1.37-1.56-2.78-3.1-4.25-4.61-2.25-2.31-5.78-3.54-9.37-3.54-2.32,0-4.66.51-6.69,1.58-5.17,2.72-6.35,8.01-2.65,11.82,12.29,12.62,20.55,27.15,24.19,42.4h-24.26c1.36-9.73,2.17-19.51,2.4-29.3.11-4.65-4.92-8.47-11.23-8.56-.07,0-.14,0-.21,0-6.22,0-11.31,3.67-11.42,8.26-.55,23.34-4.5,46.61-11.74,69.33-17.17-16.45-33.44-34.88-49-55.48-.29-.38-.57-.77-.85-1.15,1.59-1.29,2.66-2.94,2.93-4.8,1.41-9.92,3.62-19.81,6.55-29.59.88.04,1.76.06,2.64.06,5.1,0,10.31-.67,15.41-2.06,5.13-1.39,9.73-3.39,13.62-5.84,6.14.36,12.32.54,18.5.54,18.22,0,36.48-1.55,54.09-4.64h0ZM152.91,637.27c7.31,0,14.6-.23,21.84-.7,4.44-.29,8.06-2.4,9.64-5.24,10.53,8.52,21.55,16.69,32.8,24.57-5.07.13-10.13.19-15.2.19-7.47,0-14.93-.14-22.37-.42-15.36-.59-31.31-1.88-43.87-7.34-6.37-2.77-12.34-7.36-15.37-12.57,10.79,1,21.68,1.51,32.52,1.51h0ZM306.77,730.67c-10.67,0-21.36-1.33-31.38-3.95,15.02-1.62,29.92-3.99,44.59-7.13.15-.03.3-.08.45-.11,5.19,2.65,10.46,5.2,15.8,7.62-9.41,2.4-19.42,3.58-29.46,3.58h0Z"/>
</svg>